<?xml version="1.0" encoding="UTF-8" standalone="no"?>
<svg
   xmlns:dc="http://purl.org/dc/elements/1.1/"
   xmlns:cc="http://creativecommons.org/ns#"
   xmlns:rdf="http://www.w3.org/1999/02/22-rdf-syntax-ns#"
   xmlns:svg="http://www.w3.org/2000/svg"
   xmlns="http://www.w3.org/2000/svg"
   xmlns:sodipodi="http://sodipodi.sourceforge.net/DTD/sodipodi-0.dtd"
   xmlns:inkscape="http://www.inkscape.org/namespaces/inkscape"
   style="stroke-linejoin:round; stroke:black; stroke-width:0.5pt; text-anchor:middle; fill:none"
   font-family="Helvetica, Arial, FreeSans, Sans, sans, sans-serif"
   height="150px"
   width="390.0px"
   version="1.1"
   viewBox="0 0 390.0 150"
   id="svg2"
   inkscape:version="0.91 r13725"
   sodipodi:docname="com7.svg">
  <metadata
     id="metadata510">
    <rdf:RDF>
      <cc:Work
         rdf:about="">
        <dc:format>image/svg+xml</dc:format>
        <dc:type
           rdf:resource="http://purl.org/dc/dcmitype/StillImage" />
      </cc:Work>
    </rdf:RDF>
  </metadata>
  <defs
     id="defs508" />
  <sodipodi:namedview
     pagecolor="#ffffff"
     bordercolor="#666666"
     borderopacity="1"
     objecttolerance="10"
     gridtolerance="10"
     guidetolerance="10"
     inkscape:pageopacity="0"
     inkscape:pageshadow="2"
     inkscape:window-width="1920"
     inkscape:window-height="1150"
     id="namedview506"
     showgrid="false"
     inkscape:zoom="3.6307692"
     inkscape:cx="173.33792"
     inkscape:cy="72.771412"
     inkscape:window-x="1366"
     inkscape:window-y="0"
     inkscape:window-maximized="1"
     inkscape:current-layer="g4" />
  <g
     id="g4">
    <text
       font-size="6"
       text-anchor="end"
       y="92"
       x="10"
       stroke-width="0"
       fill="black"
       id="text6">1</text>
    <line
       stroke-width="0.5"
       y2="90"
       x2="380.0"
       stroke-dasharray="2,2"
       y1="90"
       x1="15"
       id="line8" />
    <text
       font-size="6"
       text-anchor="end"
       y="32"
       x="10"
       stroke-width="0"
       fill="black"
       id="text10">2</text>
    <line
       stroke-width="0.5"
       y2="30"
       x2="380.0"
       stroke-dasharray="2,2"
       y1="30"
       x1="15"
       id="line12" />
    <text
       font-size="6"
       text-anchor="end"
       y="42"
       x="10"
       stroke-width="0"
       fill="black"
       id="text14">3</text>
    <line
       stroke-width="0.5"
       y2="40"
       x2="380.0"
       stroke-dasharray="2,2"
       y1="40"
       x1="15"
       id="line16" />
    <text
       font-size="6"
       text-anchor="end"
       y="52"
       x="10"
       stroke-width="0"
       fill="black"
       id="text18">4</text>
    <line
       stroke-width="0.5"
       y2="50"
       x2="380.0"
       stroke-dasharray="2,2"
       y1="50"
       x1="15"
       id="line20" />
    <text
       font-size="6"
       text-anchor="end"
       y="72"
       x="10"
       stroke-width="0"
       fill="black"
       id="text22">5</text>
    <line
       stroke-width="0.5"
       y2="70"
       x2="380.0"
       stroke-dasharray="2,2"
       y1="70"
       x1="15"
       id="line24" />
    <text
       font-size="6"
       text-anchor="end"
       y="22"
       x="10"
       stroke-width="0"
       fill="black"
       id="text26">6</text>
    <line
       stroke-width="0.5"
       y2="20"
       x2="380.0"
       stroke-dasharray="2,2"
       y1="20"
       x1="15"
       id="line28" />
    <text
       font-size="6"
       text-anchor="end"
       y="62"
       x="10"
       stroke-width="0"
       fill="black"
       id="text30">7</text>
    <line
       stroke-width="0.5"
       y2="60"
       x2="380.0"
       stroke-dasharray="2,2"
       y1="60"
       x1="15"
       id="line32" />
    <text
       font-size="6"
       text-anchor="end"
       y="82"
       x="10"
       stroke-width="0"
       fill="black"
       id="text34">8</text>
    <line
       stroke-width="0.5"
       y2="80"
       x2="380.0"
       stroke-dasharray="2,2"
       y1="80"
       x1="15"
       id="line36" />
    <text
       font-size="6"
       text-anchor="end"
       y="102"
       x="10"
       stroke-width="0"
       fill="black"
       id="text38">9</text>
    <line
       stroke-width="0.5"
       y2="100"
       x2="380.0"
       stroke-dasharray="2,2"
       y1="100"
       x1="15"
       id="line40" />
    <text
       font-size="6"
       text-anchor="end"
       y="12"
       x="10"
       stroke-width="0"
       fill="black"
       id="text42">10</text>
    <line
       stroke-width="0.5"
       y2="10"
       x2="380.0"
       stroke-dasharray="2,2"
       y1="10"
       x1="15"
       id="line44" />
    <text
       font-size="6"
       text-anchor="end"
       y="132"
       x="10"
       stroke-width="0"
       fill="black"
       id="text46">11</text>
    <line
       stroke-width="0.5"
       y2="130"
       x2="380.0"
       stroke-dasharray="2,2"
       y1="130"
       x1="15"
       id="line48" />
    <text
       font-size="6"
       text-anchor="end"
       y="122"
       x="10"
       stroke-width="0"
       fill="black"
       id="text50">12</text>
    <line
       stroke-width="0.5"
       y2="120"
       x2="380.0"
       stroke-dasharray="2,2"
       y1="120"
       x1="15"
       id="line52" />
    <text
       font-size="6"
       text-anchor="end"
       y="112"
       x="10"
       stroke-width="0"
       fill="black"
       id="text54">13</text>
    <line
       stroke-width="0.5"
       y2="110"
       x2="380.0"
       stroke-dasharray="2,2"
       y1="110"
       x1="15"
       id="line56" />
    <line
       y2="140"
       x1="10"
       y1="140"
       x2="385.0"
       stroke-width="0.5"
       id="line58" />
    <line
       y2="140"
       x1="382.0"
       y1="137"
       x2="385.0"
       stroke-width="0.5"
       id="line60" />
    <line
       y2="140"
       x1="382.0"
       y1="143"
       x2="385.0"
       stroke-width="0.5"
       id="line62" />
    <text
       font-size="6"
       y="136.12361"
       x="375.6741"
       id="text64"
       style="font-size:6px;fill:#000000;stroke-width:0">Time</text>
    <line
       y2="143"
       x1="20"
       y1="137"
       x2="20"
       stroke-width="0.5"
       id="line66" />
    <text
       font-size="6"
       y="147"
       x="20"
       stroke-width="0"
       fill="black"
       id="text68">0</text>
    <line
       y2="143"
       x1="70"
       y1="137"
       x2="70"
       stroke-width="0.5"
       id="line70" />
    <text
       font-size="6"
       y="147"
       x="70"
       stroke-width="0"
       fill="black"
       id="text72">5</text>
    <line
       y2="143"
       x1="120"
       y1="137"
       x2="120"
       stroke-width="0.5"
       id="line74" />
    <text
       font-size="6"
       y="147"
       x="120"
       stroke-width="0"
       fill="black"
       id="text76">10</text>
    <line
       y2="143"
       x1="170"
       y1="137"
       x2="170"
       stroke-width="0.5"
       id="line78" />
    <text
       font-size="6"
       y="147"
       x="170"
       stroke-width="0"
       fill="black"
       id="text80">15</text>
    <line
       y2="143"
       x1="220"
       y1="137"
       x2="220"
       stroke-width="0.5"
       id="line82" />
    <text
       font-size="6"
       y="147"
       x="220"
       stroke-width="0"
       fill="black"
       id="text84">20</text>
    <line
       y2="143"
       x1="270"
       y1="137"
       x2="270"
       stroke-width="0.5"
       id="line86" />
    <text
       font-size="6"
       y="147"
       x="270"
       stroke-width="0"
       fill="black"
       id="text88">25</text>
    <line
       y2="143"
       x1="320"
       y1="137"
       x2="320"
       stroke-width="0.5"
       id="line90" />
    <text
       font-size="6"
       y="147"
       x="320"
       stroke-width="0"
       fill="black"
       id="text92">30</text>
    <line
       y2="143"
       x1="370"
       y1="137"
       x2="370"
       stroke-width="0.5"
       id="line94" />
    <text
       font-size="6"
       y="147"
       x="370"
       stroke-width="0"
       fill="black"
       id="text96">35</text>
    <circle
       cy="30"
       cx="30.0"
       r="1"
       fill="rgb(180, 180, 180)"
       id="circle98" />
    <circle
       cy="90"
       cx="30.0"
       r="1"
       fill="rgb(180, 180, 180)"
       id="circle100" />
    <path
       stroke="rgb(180, 180, 180)"
       d="M30.0,30 C36.9282032303,60 36.9282032303,60 30.0,90"
       id="path102" />
    <path
       stroke="rgb(180, 180, 180)"
       d="M36.9282032303,60 Q 34,62 36,60 Q 38,58 40,60 Q 42,62 44,60"
       id="path104" />
    <circle
       cy="40"
       cx="30.0"
       r="1"
       fill="rgb(180, 180, 180)"
       id="circle106" />
    <circle
       cy="50"
       cx="30.0"
       r="1"
       fill="rgb(180, 180, 180)"
       id="circle108" />
    <path
       stroke="rgb(180, 180, 180)"
       d="M30.0,40 C31.1547005384,45 31.1547005384,45 30.0,50"
       id="path110" />
    <path
       stroke="rgb(180, 180, 180)"
       d="M31.1547005384,45 Q 29,47 31,45 Q 33,43 35,45 Q 37,47 39,45"
       id="path112" />
    <circle
       cy="30"
       cx="50.0"
       r="1"
       fill="rgb(0, 100, 0)"
       id="circle114" />
    <circle
       cy="40"
       cx="50.0"
       r="1"
       fill="rgb(0, 100, 0)"
       id="circle116" />
    <path
       stroke="rgb(0, 100, 0)"
       d="M50.0,30 C51.1547005384,35 51.1547005384,35 50.0,40"
       id="path118" />
    <path
       stroke="rgb(143, 188, 143)"
       d="M51.1547005384,35 Q 49,37 51,35 Q 53,33 55,35 Q 57,37 59,35 Q 61,33 63,35 Q 65,37 67,35 Q 69,33 71,35 Q 73,37 75,35 Q 77,33 79,35 Q 81,37 83,35 Q 85,33 87,35 Q 89,37 91,35 Q 93,33 95,35 Q 97,37 99,35 Q 101,33 103,35 Q 105,37 107,35 Q 109,33 111,35 Q 113,37 115,35 Q 117,33 119,35 Q 121,37 123,35 Q 125,33 127,35 Q 129,37 131,35 Q 133,33 135,35 Q 137,37 139,35 Q 141,33 143,35 Q 145,37 147,35 Q 149,33 151,35 Q 153,37 155,35 Q 157,33 159,35 Q 161,37 163,35 Q 165,33 167,35 Q 169,37 171,35 Q 173,33 175,35"
       id="path120" />
    <circle
       cy="40"
       cx="70.0"
       r="1"
       fill="rgb(0, 100, 0)"
       id="circle122" />
    <circle
       cy="70"
       cx="70.0"
       r="1"
       fill="rgb(0, 100, 0)"
       id="circle124" />
    <path
       stroke="rgb(0, 100, 0)"
       d="M70.0,40 C73.4641016151,55 73.4641016151,55 70.0,70"
       id="path126" />
    <path
       stroke="rgb(143, 188, 143)"
       d="M73.4641016151,55 Q 71,57 73,55 Q 75,53 77,55 Q 79,57 81,55 Q 83,53 85,55 Q 87,57 89,55 Q 91,53 93,55 Q 95,57 97,55 Q 99,53 101,55 Q 103,57 105,55 Q 107,53 109,55 Q 111,57 113,55 Q 115,53 117,55 Q 119,57 121,55 Q 123,53 125,55 Q 127,57 129,55 Q 131,53 133,55"
       id="path128" />
    <circle
       cy="40"
       cx="90.0"
       r="1"
       fill="rgb(0, 100, 0)"
       id="circle130" />
    <circle
       cy="90"
       cx="90.0"
       r="1"
       fill="rgb(0, 100, 0)"
       id="circle132" />
    <path
       stroke="rgb(0, 100, 0)"
       d="M90.0,40 C95.7735026919,65 95.7735026919,65 90.0,90"
       id="path134" />
    <path
       stroke="rgb(143, 188, 143)"
       d="M95.7735026919,65 Q 93,67 95,65 Q 97,63 99,65 Q 101,67 103,65 Q 105,63 107,65 Q 109,67 111,65 Q 113,63 115,65 Q 117,67 119,65"
       id="path136" />
    <circle
       cy="50"
       cx="90.0"
       r="1"
       fill="rgb(0, 100, 0)"
       id="circle138" />
    <circle
       cy="90"
       cx="90.0"
       r="1"
       fill="rgb(0, 100, 0)"
       id="circle140" />
    <path
       stroke="rgb(0, 100, 0)"
       d="M90.0,50 C94.6188021535,70 94.6188021535,70 90.0,90"
       id="path142" />
    <path
       stroke="rgb(143, 188, 143)"
       d="M94.6188021535,70 Q 92,72 94,70 Q 96,68 98,70 Q 100,72 102,70 Q 104,68 106,70 Q 108,72 110,70"
       id="path144" />
    <circle
       cy="30"
       cx="100.0"
       r="1"
       fill="rgb(0, 100, 0)"
       id="circle146" />
    <circle
       cy="50"
       cx="100.0"
       r="1"
       fill="rgb(0, 100, 0)"
       id="circle148" />
    <path
       stroke="rgb(0, 100, 0)"
       d="M100.0,30 C102.309401077,40 102.309401077,40 100.0,50"
       id="path150" />
    <path
       stroke="rgb(143, 188, 143)"
       d="M102.309401077,40 Q 100,42 102,40 Q 104,38 106,40 Q 108,42 110,40 Q 112,38 114,40 Q 116,42 118,40 Q 120,38 122,40 Q 124,42 126,40 Q 128,38 130,40 Q 132,42 134,40 Q 136,38 138,40 Q 140,42 142,40 Q 144,38 146,40"
       id="path152" />
    <circle
       cy="50"
       cx="120.0"
       r="1"
       fill="rgb(0, 100, 0)"
       id="circle154" />
    <circle
       cy="90"
       cx="120.0"
       r="1"
       fill="rgb(0, 100, 0)"
       id="circle156" />
    <path
       stroke="rgb(0, 100, 0)"
       d="M120.0,50 C124.618802154,70 124.618802154,70 120.0,90"
       id="path158" />
    <path
       stroke="rgb(143, 188, 143)"
       d="M124.618802154,70 Q 122,72 124,70 Q 126,68 128,70 Q 130,72 132,70 Q 134,68 136,70 Q 138,72 140,70 Q 142,68 144,70 Q 146,72 148,70 Q 150,68 152,70 Q 154,72 156,70 Q 158,68 160,70 Q 162,72 164,70 Q 166,68 168,70"
       id="path160" />
    <circle
       cy="20"
       cx="140.0"
       r="1"
       fill="rgb(0, 100, 0)"
       id="circle162" />
    <circle
       cy="40"
       cx="140.0"
       r="1"
       fill="rgb(0, 100, 0)"
       id="circle164" />
    <path
       stroke="rgb(0, 100, 0)"
       d="M140.0,20 C142.309401077,30 142.309401077,30 140.0,40"
       id="path166" />
    <path
       stroke="rgb(143, 188, 143)"
       d="M142.309401077,30 Q 140,32 142,30 Q 144,28 146,30 Q 148,32 150,30 Q 152,28 154,30 Q 156,32 158,30 Q 160,28 162,30 Q 164,32 166,30 Q 168,28 170,30 Q 172,32 174,30"
       id="path168" />
    <circle
       cy="40"
       cx="150.0"
       r="1"
       fill="rgb(0, 100, 0)"
       id="circle170" />
    <circle
       cy="90"
       cx="150.0"
       r="1"
       fill="rgb(0, 100, 0)"
       id="circle172" />
    <path
       stroke="rgb(0, 100, 0)"
       d="M150.0,40 C155.773502692,65 155.773502692,65 150.0,90"
       id="path174" />
    <path
       stroke="rgb(143, 188, 143)"
       d="M155.773502692,65 Q 153,67 155,65 Q 157,63 159,65 Q 161,67 163,65 Q 165,63 167,65 Q 169,67 171,65 Q 173,63 175,65 Q 177,67 179,65"
       id="path176" />
    <circle
       cy="60"
       cx="150.0"
       r="1"
       fill="rgb(0, 100, 0)"
       id="circle178" />
    <circle
       cy="90"
       cx="150.0"
       r="1"
       fill="rgb(0, 100, 0)"
       id="circle180" />
    <path
       stroke="rgb(0, 100, 0)"
       d="M150.0,60 C153.464101615,75 153.464101615,75 150.0,90"
       id="path182" />
    <path
       stroke="rgb(143, 188, 143)"
       d="M153.464101615,75 Q 151,77 153,75 Q 155,73 157,75 Q 159,77 161,75 Q 163,73 165,75"
       id="path184" />
    <circle
       cy="40"
       cx="150.0"
       r="1"
       fill="rgb(0, 100, 0)"
       id="circle186" />
    <circle
       cy="50"
       cx="150.0"
       r="1"
       fill="rgb(0, 100, 0)"
       id="circle188" />
    <path
       stroke="rgb(0, 100, 0)"
       d="M150.0,40 C151.154700538,45 151.154700538,45 150.0,50"
       id="path190" />
    <path
       stroke="rgb(143, 188, 143)"
       d="M151.154700538,45 Q 149,47 151,45 Q 153,43 155,45 Q 157,47 159,45 Q 161,43 163,45 Q 165,47 167,45 Q 169,43 171,45"
       id="path192" />
    <circle
       cy="50"
       cx="150.0"
       r="1"
       fill="rgb(0, 100, 0)"
       id="circle194" />
    <circle
       cy="60"
       cx="150.0"
       r="1"
       fill="rgb(0, 100, 0)"
       id="circle196" />
    <path
       stroke="rgb(0, 100, 0)"
       d="M150.0,50 C151.154700538,55 151.154700538,55 150.0,60"
       id="path198" />
    <path
       stroke="rgb(143, 188, 143)"
       d="M151.154700538,55 Q 149,57 151,55 Q 153,53 155,55 Q 157,57 159,55 Q 161,53 163,55 Q 165,57 167,55 Q 169,53 171,55 Q 173,57 175,55 Q 177,53 179,55 Q 181,57 183,55 Q 185,53 187,55 Q 189,57 191,55 Q 193,53 195,55 Q 197,57 199,55 Q 201,53 203,55 Q 205,57 207,55 Q 209,53 211,55 Q 213,57 215,55"
       id="path200" />
    <circle
       cy="40"
       cx="160.0"
       r="1"
       fill="rgb(0, 100, 0)"
       id="circle202" />
    <circle
       cy="60"
       cx="160.0"
       r="1"
       fill="rgb(0, 100, 0)"
       id="circle204" />
    <path
       stroke="rgb(0, 100, 0)"
       d="M160.0,40 C162.309401077,50 162.309401077,50 160.0,60"
       id="path206" />
    <path
       stroke="rgb(143, 188, 143)"
       d="M162.309401077,50 Q 160,52 162,50 Q 164,48 166,50 Q 168,52 170,50 Q 172,48 174,50 Q 176,52 178,50 Q 180,48 182,50 Q 184,52 186,50 Q 188,48 190,50 Q 192,52 194,50 Q 196,48 198,50 Q 200,52 202,50"
       id="path208" />
    <circle
       cy="40"
       cx="160.0"
       r="1"
       fill="rgb(0, 100, 0)"
       id="circle210" />
    <circle
       cy="70"
       cx="160.0"
       r="1"
       fill="rgb(0, 100, 0)"
       id="circle212" />
    <path
       stroke="rgb(0, 100, 0)"
       d="M160.0,40 C163.464101615,55 163.464101615,55 160.0,70"
       id="path214" />
    <path
       stroke="rgb(143, 188, 143)"
       d="M163.464101615,55 Q 161,57 163,55 Q 165,53 167,55 Q 169,57 171,55 Q 173,53 175,55 Q 177,57 179,55 Q 181,53 183,55 Q 185,57 187,55 Q 189,53 191,55 Q 193,57 195,55 Q 197,53 199,55 Q 201,57 203,55"
       id="path216" />
    <circle
       cy="20"
       cx="160.0"
       r="1"
       fill="rgb(0, 100, 0)"
       id="circle218" />
    <circle
       cy="70"
       cx="160.0"
       r="1"
       fill="rgb(0, 100, 0)"
       id="circle220" />
    <path
       stroke="rgb(0, 100, 0)"
       d="M160.0,20 C165.773502692,45 165.773502692,45 160.0,70"
       id="path222" />
    <path
       stroke="rgb(143, 188, 143)"
       d="M165.773502692,45 Q 163,47 165,45 Q 167,43 169,45 Q 171,47 173,45 Q 175,43 177,45 Q 179,47 181,45 Q 183,43 185,45 Q 187,47 189,45 Q 191,43 193,45 Q 195,47 197,45 Q 199,43 201,45 Q 203,47 205,45 Q 207,43 209,45"
       id="path224" />
    <circle
       cy="60"
       cx="160.0"
       r="1"
       fill="rgb(0, 100, 0)"
       id="circle226" />
    <circle
       cy="70"
       cx="160.0"
       r="1"
       fill="rgb(0, 100, 0)"
       id="circle228" />
    <path
       stroke="rgb(0, 100, 0)"
       d="M160.0,60 C161.154700538,65 161.154700538,65 160.0,70"
       id="path230" />
    <path
       stroke="rgb(143, 188, 143)"
       d="M161.154700538,65 Q 159,67 161,65 Q 163,63 165,65 Q 167,67 169,65 Q 171,63 173,65"
       id="path232" />
    <circle
       cy="30"
       cx="160.0"
       r="1"
       fill="rgb(0, 100, 0)"
       id="circle234" />
    <circle
       cy="60"
       cx="160.0"
       r="1"
       fill="rgb(0, 100, 0)"
       id="circle236" />
    <path
       stroke="rgb(0, 100, 0)"
       d="M160.0,30 C163.464101615,45 163.464101615,45 160.0,60"
       id="path238" />
    <path
       stroke="rgb(143, 188, 143)"
       d="M163.464101615,45 Q 161,47 163,45 Q 165,43 167,45 Q 169,47 171,45 Q 173,43 175,45 Q 177,47 179,45 Q 181,43 183,45 Q 185,47 187,45 Q 189,43 191,45 Q 193,47 195,45 Q 197,43 199,45 Q 201,47 203,45"
       id="path240" />
    <circle
       cy="30"
       cx="180.0"
       r="1"
       fill="rgb(0, 100, 0)"
       id="circle242" />
    <circle
       cy="50"
       cx="180.0"
       r="1"
       fill="rgb(0, 100, 0)"
       id="circle244" />
    <path
       stroke="rgb(0, 100, 0)"
       d="M180.0,30 C182.309401077,40 182.309401077,40 180.0,50"
       id="path246" />
    <path
       stroke="rgb(143, 188, 143)"
       d="M182.309401077,40 Q 180,42 182,40 Q 184,38 186,40 Q 188,42 190,40 Q 192,38 194,40 Q 196,42 198,40 Q 200,38 202,40 Q 204,42 206,40 Q 208,38 210,40"
       id="path248" />
    <circle
       cy="20"
       cx="180.0"
       r="1"
       fill="rgb(0, 100, 0)"
       id="circle250" />
    <circle
       cy="50"
       cx="180.0"
       r="1"
       fill="rgb(0, 100, 0)"
       id="circle252" />
    <path
       stroke="rgb(0, 100, 0)"
       d="M180.0,20 C183.464101615,35 183.464101615,35 180.0,50"
       id="path254" />
    <path
       stroke="rgb(143, 188, 143)"
       d="M183.464101615,35 Q 181,37 183,35 Q 185,33 187,35 Q 189,37 191,35"
       id="path256" />
    <circle
       cy="20"
       cx="180.0"
       r="1"
       fill="rgb(0, 100, 0)"
       id="circle258" />
    <circle
       cy="60"
       cx="180.0"
       r="1"
       fill="rgb(0, 100, 0)"
       id="circle260" />
    <path
       stroke="rgb(0, 100, 0)"
       d="M180.0,20 C184.618802154,40 184.618802154,40 180.0,60"
       id="path262" />
    <path
       stroke="rgb(143, 188, 143)"
       d="M184.618802154,40 Q 182,42 184,40 Q 186,38 188,40 Q 190,42 192,40 Q 194,38 196,40 Q 198,42 200,40 Q 202,38 204,40 Q 206,42 208,40 Q 210,38 212,40 Q 214,42 216,40"
       id="path264" />
    <circle
       cy="30"
       cx="190.0"
       r="1"
       fill="rgb(0, 100, 0)"
       id="circle266" />
    <circle
       cy="90"
       cx="190.0"
       r="1"
       fill="rgb(0, 100, 0)"
       id="circle268" />
    <path
       stroke="rgb(0, 100, 0)"
       d="M190.0,30 C196.92820323,60 196.92820323,60 190.0,90"
       id="path270" />
    <path
       stroke="rgb(143, 188, 143)"
       d="M196.92820323,60 Q 194,62 196,60 Q 198,58 200,60 Q 202,62 204,60"
       id="path272" />
    <circle
       cy="60"
       cx="190.0"
       r="1"
       fill="rgb(0, 100, 0)"
       id="circle274" />
    <circle
       cy="90"
       cx="190.0"
       r="1"
       fill="rgb(0, 100, 0)"
       id="circle276" />
    <path
       stroke="rgb(0, 100, 0)"
       d="M190.0,60 C193.464101615,75 193.464101615,75 190.0,90"
       id="path278" />
    <path
       stroke="rgb(143, 188, 143)"
       d="M193.464101615,75 Q 191,77 193,75 Q 195,73 197,75 Q 199,77 201,75 Q 203,73 205,75 Q 207,77 209,75 Q 211,73 213,75 Q 215,77 217,75"
       id="path280" />
    <circle
       cy="40"
       cx="200.0"
       r="1"
       fill="rgb(0, 100, 0)"
       id="circle282" />
    <circle
       cy="50"
       cx="200.0"
       r="1"
       fill="rgb(0, 100, 0)"
       id="circle284" />
    <path
       stroke="rgb(0, 100, 0)"
       d="M200.0,40 C201.154700538,45 201.154700538,45 200.0,50"
       id="path286" />
    <path
       stroke="rgb(143, 188, 143)"
       d="M201.154700538,45 Q 199,47 201,45 Q 203,43 205,45 Q 207,47 209,45 Q 211,43 213,45 Q 215,47 217,45"
       id="path288" />
    <circle
       cy="20"
       cx="210.0"
       r="1"
       fill="rgb(0, 100, 0)"
       id="circle290" />
    <circle
       cy="30"
       cx="210.0"
       r="1"
       fill="rgb(0, 100, 0)"
       id="circle292" />
    <path
       stroke="rgb(0, 100, 0)"
       d="M210.0,20 C211.154700538,25 211.154700538,25 210.0,30"
       id="path294" />
    <path
       stroke="rgb(143, 188, 143)"
       d="M211.154700538,25 Q 209,27 211,25 Q 213,23 215,25 Q 217,27 219,25"
       id="path296" />
    <circle
       cy="60"
       cx="210.0"
       r="1"
       fill="rgb(0, 100, 0)"
       id="circle298" />
    <circle
       cy="80"
       cx="210.0"
       r="1"
       fill="rgb(0, 100, 0)"
       id="circle300" />
    <path
       stroke="rgb(0, 100, 0)"
       d="M210.0,60 C212.309401077,70 212.309401077,70 210.0,80"
       id="path302" />
    <path
       stroke="rgb(143, 188, 143)"
       d="M212.309401077,70 Q 210,72 212,70 Q 214,68 216,70 Q 218,72 220,70 Q 222,68 224,70"
       id="path304" />
    <circle
       cy="60"
       cx="220.0"
       r="1"
       fill="rgb(0, 100, 0)"
       id="circle306" />
    <circle
       cy="100"
       cx="220.0"
       r="1"
       fill="rgb(0, 100, 0)"
       id="circle308" />
    <path
       stroke="rgb(0, 100, 0)"
       d="M220.0,60 C224.618802154,80 224.618802154,80 220.0,100"
       id="path310" />
    <path
       stroke="rgb(143, 188, 143)"
       d="M224.618802154,80 Q 222,82 224,80 Q 226,78 228,80 Q 230,82 232,80 Q 234,78 236,80"
       id="path312" />
    <circle
       cy="70"
       cx="230.0"
       r="1"
       fill="rgb(0, 100, 0)"
       id="circle314" />
    <circle
       cy="80"
       cx="230.0"
       r="1"
       fill="rgb(0, 100, 0)"
       id="circle316" />
    <path
       stroke="rgb(0, 100, 0)"
       d="M230.0,70 C231.154700538,75 231.154700538,75 230.0,80"
       id="path318" />
    <path
       stroke="rgb(143, 188, 143)"
       d="M231.154700538,75 Q 229,77 231,75 Q 233,73 235,75 Q 237,77 239,75 Q 241,73 243,75"
       id="path320" />
    <circle
       cy="50"
       cx="230.0"
       r="1"
       fill="rgb(0, 100, 0)"
       id="circle322" />
    <circle
       cy="60"
       cx="230.0"
       r="1"
       fill="rgb(0, 100, 0)"
       id="circle324" />
    <path
       stroke="rgb(0, 100, 0)"
       d="M230.0,50 C231.154700538,55 231.154700538,55 230.0,60"
       id="path326" />
    <path
       stroke="rgb(143, 188, 143)"
       d="M231.154700538,55 Q 229,57 231,55 Q 233,53 235,55 Q 237,57 239,55 Q 241,53 243,55"
       id="path328" />
    <circle
       cy="10"
       cx="230.0"
       r="1"
       fill="rgb(0, 100, 0)"
       id="circle330" />
    <circle
       cy="20"
       cx="230.0"
       r="1"
       fill="rgb(0, 100, 0)"
       id="circle332" />
    <path
       stroke="rgb(0, 100, 0)"
       d="M230.0,10 C231.154700538,15 231.154700538,15 230.0,20"
       id="path334" />
    <path
       stroke="rgb(143, 188, 143)"
       d="M231.154700538,15 Q 229,17 231,15 Q 233,13 235,15 Q 237,17 239,15 Q 241,13 243,15"
       id="path336" />
    <circle
       cy="90"
       cx="230.0"
       r="1"
       fill="rgb(0, 100, 0)"
       id="circle338" />
    <circle
       cy="100"
       cx="230.0"
       r="1"
       fill="rgb(0, 100, 0)"
       id="circle340" />
    <path
       stroke="rgb(0, 100, 0)"
       d="M230.0,90 C231.154700538,95 231.154700538,95 230.0,100"
       id="path342" />
    <path
       stroke="rgb(143, 188, 143)"
       d="M231.154700538,95 Q 229,97 231,95 Q 233,93 235,95 Q 237,97 239,95 Q 241,93 243,95 Q 245,97 247,95 Q 249,93 251,95 Q 253,97 255,95 Q 257,93 259,95 Q 261,97 263,95 Q 265,93 267,95 Q 269,97 271,95 Q 273,93 275,95 Q 277,97 279,95 Q 281,93 283,95 Q 285,97 287,95 Q 289,93 291,95"
       id="path344" />
    <circle
       cy="40"
       cx="230.0"
       r="1"
       fill="rgb(0, 100, 0)"
       id="circle346" />
    <circle
       cy="100"
       cx="230.0"
       r="1"
       fill="rgb(0, 100, 0)"
       id="circle348" />
    <path
       stroke="rgb(0, 100, 0)"
       d="M230.0,40 C236.92820323,70 236.92820323,70 230.0,100"
       id="path350" />
    <path
       stroke="rgb(143, 188, 143)"
       d="M236.92820323,70 Q 234,72 236,70 Q 238,68 240,70 Q 242,72 244,70 Q 246,68 248,70 Q 250,72 252,70"
       id="path352" />
    <circle
       cy="40"
       cx="240.0"
       r="1"
       fill="rgb(0, 100, 0)"
       id="circle354" />
    <circle
       cy="50"
       cx="240.0"
       r="1"
       fill="rgb(0, 100, 0)"
       id="circle356" />
    <path
       stroke="rgb(0, 100, 0)"
       d="M240.0,40 C241.154700538,45 241.154700538,45 240.0,50"
       id="path358" />
    <path
       stroke="rgb(143, 188, 143)"
       d="M241.154700538,45 Q 239,47 241,45 Q 243,43 245,45 Q 247,47 249,45 Q 251,43 253,45 Q 255,47 257,45"
       id="path360" />
    <circle
       cy="10"
       cx="250.0"
       r="1"
       fill="rgb(0, 100, 0)"
       id="circle362" />
    <circle
       cy="100"
       cx="250.0"
       r="1"
       fill="rgb(0, 100, 0)"
       id="circle364" />
    <path
       stroke="rgb(0, 100, 0)"
       d="M250.0,10 C260.392304845,55 260.392304845,55 250.0,100"
       id="path366" />
    <path
       stroke="rgb(143, 188, 143)"
       d="M260.392304845,55 Q 258,57 260,55 Q 262,53 264,55"
       id="path368" />
    <circle
       cy="50"
       cx="250.0"
       r="1"
       fill="rgb(0, 100, 0)"
       id="circle370" />
    <circle
       cy="60"
       cx="250.0"
       r="1"
       fill="rgb(0, 100, 0)"
       id="circle372" />
    <path
       stroke="rgb(0, 100, 0)"
       d="M250.0,50 C251.154700538,55 251.154700538,55 250.0,60"
       id="path374" />
    <path
       stroke="rgb(143, 188, 143)"
       d="M251.154700538,55 Q 249,57 251,55 Q 253,53 255,55 Q 257,57 259,55 Q 261,53 263,55 Q 265,57 267,55"
       id="path376" />
    <circle
       cy="70"
       cx="260.0"
       r="1"
       fill="rgb(180, 180, 180)"
       id="circle378" />
    <circle
       cy="80"
       cx="260.0"
       r="1"
       fill="rgb(180, 180, 180)"
       id="circle380" />
    <path
       stroke="rgb(180, 180, 180)"
       d="M260.0,70 C261.154700538,75 261.154700538,75 260.0,80"
       id="path382" />
    <path
       stroke="rgb(180, 180, 180)"
       d="M261.154700538,75 Q 259,77 261,75 Q 263,73 265,75 Q 267,77 269,75"
       id="path384" />
    <circle
       cy="80"
       cx="280.0"
       r="1"
       fill="rgb(180, 180, 180)"
       id="circle386" />
    <circle
       cy="130"
       cx="280.0"
       r="1"
       fill="rgb(180, 180, 180)"
       id="circle388" />
    <path
       stroke="rgb(180, 180, 180)"
       d="M280.0,80 C285.773502692,105 285.773502692,105 280.0,130"
       id="path390" />
    <path
       stroke="rgb(180, 180, 180)"
       d="M285.773502692,105 Q 283,107 285,105 Q 287,103 289,105 Q 291,107 293,105 Q 295,103 297,105 Q 299,107 301,105 Q 303,103 305,105 Q 307,107 309,105"
       id="path392" />
    <circle
       cy="90"
       cx="280.0"
       r="1"
       fill="rgb(0, 100, 0)"
       id="circle394" />
    <circle
       cy="120"
       cx="280.0"
       r="1"
       fill="rgb(0, 100, 0)"
       id="circle396" />
    <path
       stroke="rgb(0, 100, 0)"
       d="M280.0,90 C283.464101615,105 283.464101615,105 280.0,120"
       id="path398" />
    <path
       stroke="rgb(143, 188, 143)"
       d="M283.464101615,105 Q 281,107 283,105 Q 285,103 287,105 Q 289,107 291,105 Q 293,103 295,105 Q 297,107 299,105 Q 301,103 303,105 Q 305,107 307,105 Q 309,103 311,105"
       id="path400" />
    <circle
       cy="50"
       cx="300.0"
       r="1"
       fill="rgb(180, 180, 180)"
       id="circle402" />
    <circle
       cy="70"
       cx="300.0"
       r="1"
       fill="rgb(180, 180, 180)"
       id="circle404" />
    <path
       stroke="rgb(180, 180, 180)"
       d="M300.0,50 C302.309401077,60 302.309401077,60 300.0,70"
       id="path406" />
    <path
       stroke="rgb(180, 180, 180)"
       d="M302.309401077,60 Q 300,62 302,60 Q 304,58 306,60 Q 308,62 310,60 Q 312,58 314,60"
       id="path408" />
    <circle
       cy="60"
       cx="300.0"
       r="1"
       fill="rgb(180, 180, 180)"
       id="circle410" />
    <circle
       cy="80"
       cx="300.0"
       r="1"
       fill="rgb(180, 180, 180)"
       id="circle412" />
    <path
       stroke="rgb(180, 180, 180)"
       d="M300.0,60 C302.309401077,70 302.309401077,70 300.0,80"
       id="path414" />
    <path
       stroke="rgb(180, 180, 180)"
       d="M302.309401077,70 Q 300,72 302,70 Q 304,68 306,70 Q 308,72 310,70 Q 312,68 314,70 Q 316,72 318,70 Q 320,68 322,70 Q 324,72 326,70"
       id="path416" />
    <circle
       cy="60"
       cx="300.0"
       r="1"
       fill="rgb(180, 180, 180)"
       id="circle418" />
    <circle
       cy="70"
       cx="300.0"
       r="1"
       fill="rgb(180, 180, 180)"
       id="circle420" />
    <path
       stroke="rgb(180, 180, 180)"
       d="M300.0,60 C301.154700538,65 301.154700538,65 300.0,70"
       id="path422" />
    <path
       stroke="rgb(180, 180, 180)"
       d="M301.154700538,65 Q 299,67 301,65"
       id="path424" />
    <circle
       cy="90"
       cx="310.0"
       r="1"
       fill="rgb(0, 100, 0)"
       id="circle426" />
    <circle
       cy="110"
       cx="310.0"
       r="1"
       fill="rgb(0, 100, 0)"
       id="circle428" />
    <path
       stroke="rgb(0, 100, 0)"
       d="M310.0,90 C312.309401077,100 312.309401077,100 310.0,110"
       id="path430" />
    <path
       stroke="rgb(143, 188, 143)"
       d="M312.309401077,100 Q 310,102 312,100"
       id="path432" />
    <circle
       cy="100"
       cx="310.0"
       r="1"
       fill="rgb(0, 100, 0)"
       id="circle434" />
    <circle
       cy="110"
       cx="310.0"
       r="1"
       fill="rgb(0, 100, 0)"
       id="circle436" />
    <path
       stroke="rgb(0, 100, 0)"
       d="M310.0,100 C311.154700538,105 311.154700538,105 310.0,110"
       id="path438" />
    <path
       stroke="rgb(143, 188, 143)"
       d="M311.154700538,105 Q 309,107 311,105 Q 313,103 315,105"
       id="path440" />
    <circle
       cy="30"
       cx="310.0"
       r="1"
       fill="rgb(0, 100, 0)"
       id="circle442" />
    <circle
       cy="40"
       cx="310.0"
       r="1"
       fill="rgb(0, 100, 0)"
       id="circle444" />
    <path
       stroke="rgb(0, 100, 0)"
       d="M310.0,30 C311.154700538,35 311.154700538,35 310.0,40"
       id="path446" />
    <path
       stroke="rgb(143, 188, 143)"
       d="M311.154700538,35 Q 309,37 311,35 Q 313,33 315,35 Q 317,37 319,35 Q 321,33 323,35"
       id="path448" />
    <circle
       cy="50"
       cx="310.0"
       r="1"
       fill="rgb(180, 180, 180)"
       id="circle450" />
    <circle
       cy="60"
       cx="310.0"
       r="1"
       fill="rgb(180, 180, 180)"
       id="circle452" />
    <path
       stroke="rgb(180, 180, 180)"
       d="M310.0,50 C311.154700538,55 311.154700538,55 310.0,60"
       id="path454" />
    <path
       stroke="rgb(180, 180, 180)"
       d="M311.154700538,55 Q 309,57 311,55 Q 313,53 315,55 Q 317,57 319,55"
       id="path456" />
    <circle
       cy="40"
       cx="310.0"
       r="1"
       fill="rgb(0, 100, 0)"
       id="circle458" />
    <circle
       cy="100"
       cx="310.0"
       r="1"
       fill="rgb(0, 100, 0)"
       id="circle460" />
    <path
       stroke="rgb(0, 100, 0)"
       d="M310.0,40 C316.92820323,70 316.92820323,70 310.0,100"
       id="path462" />
    <path
       stroke="rgb(143, 188, 143)"
       d="M316.92820323,70 Q 314,72 316,70 Q 318,68 320,70 Q 322,72 324,70 Q 326,68 328,70 Q 330,72 332,70"
       id="path464" />
    <circle
       cy="70"
       cx="320.0"
       r="1"
       fill="rgb(180, 180, 180)"
       id="circle466" />
    <circle
       cy="80"
       cx="320.0"
       r="1"
       fill="rgb(180, 180, 180)"
       id="circle468" />
    <path
       stroke="rgb(180, 180, 180)"
       d="M320.0,70 C321.154700538,75 321.154700538,75 320.0,80"
       id="path470" />
    <path
       stroke="rgb(180, 180, 180)"
       d="M321.154700538,75 Q 319,77 321,75 Q 323,73 325,75 Q 327,77 329,75 Q 331,73 333,75 Q 335,77 337,75 Q 339,73 341,75 Q 343,77 345,75 Q 347,73 349,75 Q 351,77 353,75 Q 355,73 357,75"
       id="path472" />
    <circle
       cy="60"
       cx="330.0"
       r="1"
       fill="rgb(180, 180, 180)"
       id="circle474" />
    <circle
       cy="70"
       cx="330.0"
       r="1"
       fill="rgb(180, 180, 180)"
       id="circle476" />
    <path
       stroke="rgb(180, 180, 180)"
       d="M330.0,60 C331.154700538,65 331.154700538,65 330.0,70"
       id="path478" />
    <path
       stroke="rgb(180, 180, 180)"
       d="M331.154700538,65 Q 329,67 331,65 Q 333,63 335,65 Q 337,67 339,65 Q 341,63 343,65 Q 345,67 347,65"
       id="path480" />
    <circle
       cy="100"
       cx="350.0"
       r="1"
       fill="rgb(180, 180, 180)"
       id="circle482" />
    <circle
       cy="110"
       cx="350.0"
       r="1"
       fill="rgb(180, 180, 180)"
       id="circle484" />
    <path
       stroke="rgb(180, 180, 180)"
       d="M350.0,100 C351.154700538,105 351.154700538,105 350.0,110"
       id="path486" />
    <path
       stroke="rgb(180, 180, 180)"
       d="M351.154700538,105 Q 349,107 351,105 Q 353,103 355,105 Q 357,107 359,105 Q 361,103 363,105"
       id="path488" />
    <circle
       cy="30"
       cx="350.0"
       r="1"
       fill="rgb(180, 180, 180)"
       id="circle490" />
    <circle
       cy="40"
       cx="350.0"
       r="1"
       fill="rgb(180, 180, 180)"
       id="circle492" />
    <path
       stroke="rgb(180, 180, 180)"
       d="M350.0,30 C351.154700538,35 351.154700538,35 350.0,40"
       id="path494" />
    <path
       stroke="rgb(180, 180, 180)"
       d="M351.154700538,35 Q 349,37 351,35 Q 353,33 355,35 Q 357,37 359,35 Q 361,33 363,35 Q 365,37 367,35"
       id="path496" />
    <circle
       cy="90"
       cx="360.0"
       r="1"
       fill="rgb(180, 180, 180)"
       id="circle498" />
    <circle
       cy="120"
       cx="360.0"
       r="1"
       fill="rgb(180, 180, 180)"
       id="circle500" />
    <path
       stroke="rgb(180, 180, 180)"
       d="M360.0,90 C363.464101615,105 363.464101615,105 360.0,120"
       id="path502" />
    <path
       stroke="rgb(180, 180, 180)"
       d="M363.464101615,105 Q 361,107 363,105 Q 365,103 367,105 Q 369,107 371,105 Q 373,103 375,105"
       id="path504" />
  </g>
</svg>
