<?xml version="1.0" encoding="UTF-8" standalone="no"?>
<!-- Created with Inkscape (http://www.inkscape.org/) -->

<svg
   xmlns:dc="http://purl.org/dc/elements/1.1/"
   xmlns:cc="http://creativecommons.org/ns#"
   xmlns:rdf="http://www.w3.org/1999/02/22-rdf-syntax-ns#"
   xmlns:svg="http://www.w3.org/2000/svg"
   xmlns="http://www.w3.org/2000/svg"
   xmlns:sodipodi="http://sodipodi.sourceforge.net/DTD/sodipodi-0.dtd"
   xmlns:inkscape="http://www.inkscape.org/namespaces/inkscape"
   id="svg2"
   version="1.1"
   inkscape:version="0.91 r13725"
   xml:space="preserve"
   width="738.75"
   height="578.75"
   viewBox="0 0 738.75 578.75"
   sodipodi:docname="cdf_density_duration.svg"><metadata
     id="metadata8"><rdf:RDF><cc:Work
         rdf:about=""><dc:format>image/svg+xml</dc:format><dc:type
           rdf:resource="http://purl.org/dc/dcmitype/StillImage" /><dc:title></dc:title></cc:Work></rdf:RDF></metadata><defs
     id="defs6"><clipPath
       clipPathUnits="userSpaceOnUse"
       id="clipPath18"><path
         d="m 4,8 0,4622 5906,0 L 5910,8 4,8 Z"
         id="path20"
         inkscape:connector-curvature="0" /></clipPath><clipPath
       clipPathUnits="userSpaceOnUse"
       id="clipPath30"><path
         d="m 1140.52,958.172 4464,0 0,3456 -4464,0 0,-3456 z"
         id="path32"
         inkscape:connector-curvature="0" /></clipPath><clipPath
       clipPathUnits="userSpaceOnUse"
       id="clipPath50"><path
         d="m 4,8 0,4622 5906,0 L 5910,8 4,8 Z"
         id="path52"
         inkscape:connector-curvature="0" /></clipPath></defs><sodipodi:namedview
     pagecolor="#ffffff"
     bordercolor="#666666"
     borderopacity="1"
     objecttolerance="10"
     gridtolerance="10"
     guidetolerance="10"
     inkscape:pageopacity="0"
     inkscape:pageshadow="2"
     inkscape:window-width="1920"
     inkscape:window-height="1143"
     id="namedview4"
     showgrid="false"
     inkscape:zoom="1.6311015"
     inkscape:cx="422.47503"
     inkscape:cy="82.755583"
     inkscape:window-x="1366"
     inkscape:window-y="0"
     inkscape:window-maximized="1"
     inkscape:current-layer="g140" /><g
     id="g10"
     inkscape:groupmode="layer"
     inkscape:label="ink_ext_XXXXXX"
     transform="matrix(1.25,0,0,-1.25,0,578.75)"><g
       id="g12"
       transform="scale(0.1,0.1)"><g
         id="g14"><g
           id="g16"
           clip-path="url(#clipPath18)"><path
             d="m 4.51953,8.67188 5910.96997,0 0,4622.66002 -5910.96997,0 0,-4622.66002 z"
             style="fill:#ffffff;fill-opacity:1;fill-rule:nonzero;stroke:none"
             id="path22"
             inkscape:connector-curvature="0" /><path
             d="m 1140.89,958.172 4464,0 0,3456 -4464,0 0,-3456 z"
             style="fill:#ffffff;fill-opacity:1;fill-rule:nonzero;stroke:none"
             id="path24"
             inkscape:connector-curvature="0" /></g></g><g
         id="g26"><g
           id="g28"
           clip-path="url(#clipPath30)"><path
             d="m 1140.89,958.172 9.06,31.133 72.26,31.135 5,31.13 72.53,31.14 25.86,31.14 30.79,31.13 37.81,31.14 7.32,31.13 14.44,31.14 12.46,31.13 16.85,31.14 106.93,31.13 14.68,31.14 0.21,31.13 160.14,31.14 86.16,31.13 44.58,31.14 145.59,31.13 377.49,31.14 402.41,31.13 244.18,31.14 320.54,31.13 264.41,31.14 240.22,31.13 203.77,31.14 127.54,31.13 126.89,31.14 4.57,31.13 24.87,31.14 11.85,31.13 32.53,31.14 22.36,31.14 8.07,31.13 9.21,31.14 28.49,31.13 45.58,31.14 18.25,31.13 19.62,31.13 2.22,31.14 26.6,31.13 7.07,31.14 4.52,31.14 23.5,31.13 11.34,31.14 62.33,31.13 17.74,31.14 54.38,31.13 14.16,31.14 23.39,31.13 48.39,31.14 15.63,31.13 8.98,31.14 24.93,31.13 1.07,31.14 32.34,31.13 14.95,31.14 19.08,31.13 11.44,31.14 12.52,31.13 7.83,31.14 8.44,31.13 2.3,31.14 5.46,31.13 12.86,31.14 8.48,31.13 16.68,31.14 5.36,31.13 14.37,31.14 17.12,31.14 8.54,31.13 12.18,31.14 2.66,31.13 23.25,31.14 7.4,31.13 28.56,31.13 4.62,31.14 2.67,31.13 0.94,31.14 4.04,31.14 2.88,31.13 24.73,31.14 6.18,31.13 2.57,31.14 9.17,31.13 10.36,31.14 3.9,31.13 15.69,31.14 9.82,31.13 4.73,31.14 3.91,31.13 10.47,31.14 1.94,31.13 6.01,31.14 9.46,31.13 34.94,31.14 2.87,31.13 5.54,31.14 3.9,31.13 2.47,31.14 12.76,31.13 3.39,31.14 10.63,31.13 30.97,31.14 12.46,31.13 37.72,31.14 76.97,31.14 24.23,31.13 21.38,31.14 27.63,31.13 8.46,31.14"
             style="fill:none;stroke:#0000ff;stroke-width:10;stroke-linecap:butt;stroke-linejoin:round;stroke-miterlimit:100000;stroke-dasharray:60, 60;stroke-dashoffset:0;stroke-opacity:1"
             id="path34"
             inkscape:connector-curvature="0" /><path
             d="m 1140.89,958.172 49.56,31.133 32.7,31.135 31.4,31.13 13.56,31.14 1.7,31.14 24.86,31.13 51.55,31.14 54.94,31.13 14.03,31.14 40.36,31.13 48.59,31.14 48.85,31.13 1.4,31.14 3.95,31.13 40.48,31.14 30.3,31.13 8.69,31.14 14.67,31.13 2.39,31.14 14.35,31.13 31.17,31.14 4.97,31.13 37.89,31.14 9.8,31.13 46.11,31.14 49.88,31.13 7.29,31.14 40.31,31.13 40,31.14 94.41,31.13 106.65,31.14 78.73,31.14 0.37,31.13 1.04,31.14 74.2,31.13 67.2,31.14 50.8,31.13 31.53,31.13 57.27,31.14 46.04,31.13 40.1,31.14 82.15,31.14 75.59,31.13 56.96,31.14 21.68,31.13 54.04,31.14 70.81,31.13 17.49,31.14 44.29,31.13 61.43,31.14 8.6,31.13 9.51,31.14 3.76,31.13 3.13,31.14 8.13,31.13 25.13,31.14 1.46,31.13 8.06,31.14 73.64,31.13 36.23,31.14 28.67,31.13 30.65,31.14 34.59,31.13 30.61,31.14 91.05,31.13 14.75,31.14 81.38,31.13 61.77,31.14 51.46,31.14 48.59,31.13 104.07,31.14 13.11,31.13 99.56,31.14 89.8,31.13 52.57,31.13 8,31.14 105.95,31.13 83.83,31.14 36.95,31.14 39.34,31.13 28.21,31.14 20.58,31.13 2.97,31.14 9.51,31.13 0.95,31.14 7.06,31.13 18.41,31.14 29.71,31.13 48.62,31.14 7.21,31.13 31.2,31.14 44.99,31.13 2.9,31.14 32.28,31.13 54.24,31.14 56.3,31.13 33.15,31.14 89.8,31.13 34.9,31.14 47.03,31.13 14.06,31.14 141.69,31.13 117.43,31.14 85.28,31.13 97.91,31.14 37.77,31.14 17.66,31.13 64.46,31.14 6.06,31.13 68.78,31.14"
             style="fill:none;stroke:#008000;stroke-width:10;stroke-linecap:butt;stroke-linejoin:round;stroke-miterlimit:100000;stroke-dasharray:60, 60;stroke-dashoffset:0;stroke-opacity:1"
             id="path36"
             inkscape:connector-curvature="0" /><path
             d="m 1140.89,958.172 89.25,31.133 34.61,31.135 63.96,31.13 37.51,31.14 147.67,31.14 61.49,31.13 102.53,31.14 175.46,31.13 155.77,31.14 140.58,31.13 188.54,31.14 211.17,31.13 213.53,31.14 191.6,31.13 169,31.14 188.62,31.13 236.99,31.14 241.35,31.13 241.35,31.14 175.47,31.13 78.94,31.14 81.6,31.13 133.77,31.14 123.48,31.13 26.65,31.14 3.26,31.13 67.01,31.14 38.2,31.13 99.79,31.14 71.65,31.13 14.65,31.14 2.8,31.14 30.98,31.13 1.66,31.14 9.56,31.13 8.54,31.14 4.19,31.13 4.25,31.13 0.56,31.14 19.34,31.13 26.39,31.14 3.35,31.14 11.24,31.13 5.71,31.14 7.33,31.13 3.26,31.14 6.35,31.13 5.66,31.14 10.8,31.13 1.67,31.14 14.15,31.13 4.55,31.14 4.46,31.13 5.98,31.14 1.06,31.13 3.09,31.14 0.7,31.13 6.58,31.14 2.7,31.13 0.3,31.14 1.75,31.13 1.92,31.14 5.54,31.13 18.42,31.14 7.52,31.13 2.2,31.14 8.9,31.13 41.31,31.14 11.48,31.14 11.47,31.13 2.6,31.14 14.73,31.13 0.52,31.14 6.58,31.13 7.76,31.13 2.34,31.14 2.49,31.13 20.54,31.14 13.72,31.14 17.43,31.13 0.55,31.14 8.14,31.13 2.37,31.14 0.58,31.13 1.23,31.14 10.9,31.13 5.05,31.14 16.11,31.13 2.59,31.14 13.4,31.13 0.06,31.14 7.5,31.13 5.5,31.14 15.43,31.13 15.07,31.14 5.96,31.13 19.88,31.14 10.3,31.13 21.59,31.14 15.81,31.13 2.29,31.14 8.56,31.13 15.96,31.14 10.41,31.13 3.69,31.14 15.96,31.14 7.31,31.13 3.9,31.14 3.06,31.13 2.96,31.14"
             style="fill:none;stroke:#ff0000;stroke-width:10;stroke-linecap:butt;stroke-linejoin:round;stroke-miterlimit:100000;stroke-dasharray:60, 60;stroke-dashoffset:0;stroke-opacity:1"
             id="path38"
             inkscape:connector-curvature="0" /><path
             d="m 1140.89,958.172 96.12,8.426 96.12,8.429 136.47,8.43 4.05,8.43 0.22,8.433 3.84,8.43 0.43,8.43 7.47,33.71 0.31,8.43 2.71,8.43 2.98,25.29 5.12,16.86 0.74,8.42 1.88,8.43 0.08,8.43 4.57,16.86 3.54,25.29 1.51,8.43 1.19,16.86 8.07,25.29 0.45,25.29 2.29,8.43 4.7,50.57 2.27,50.57 12.92,345.61 1.1,16.85 8.28,177.02 9.04,126.44 1.59,42.14 5.64,75.87 2.81,8.43 8.45,59 2.26,33.72 1.78,16.86 1.75,50.57 1.29,25.29 1.51,42.14 1.5,25.29 0,8.43 1.49,8.43 1.83,33.72 1.94,8.43 5.39,67.44 1.29,16.85 1.67,16.86 3.47,109.58 4.84,33.72 1.49,8.43 1.39,16.86 2.28,50.57 1.73,25.29 1.44,8.43 0.27,8.43 1.59,8.43 0.14,8.43 1.28,8.42 0.44,16.86 2.36,16.86 3.93,67.44 5.42,8.43 2.79,8.43 7.59,8.43 2.56,8.43 3.9,8.42 3.93,16.86 4.94,8.43 5.15,16.86 0.15,8.43 5,16.86 5.24,8.43 1.33,25.28 4.4,8.43 5.74,25.29 5.73,25.29 9.58,25.29 4.63,8.43 2.13,16.86 4.48,8.42 9.16,33.72 1.05,8.43 5.52,8.43 0.32,8.43 5.79,16.86 7.03,8.43 0.73,8.43 12.3,33.71 1.58,8.43 5.31,8.43 0.3,8.43 5.02,8.43 2.18,16.86 2.77,8.43 183.03,84.29 19.23,16.86 5.78,8.43 3.83,8.43 9.62,8.43 86.12,33.71 22.48,16.86 46.6,16.86 76.63,50.58 54.82,16.85 5.03,8.43 22.38,8.43 82.23,25.29 33.39,16.86 10.75,8.43 5.95,8.43 52.25,25.29 37.15,16.86 34.77,8.42 34.77,16.86 69.54,16.86 44,16.86 244.1,50.57 63.5,8.43 34.39,8.43 29.1,8.43 127,16.86 66.39,16.86 106.79,16.86 75.39,16.86 59.39,8.43 7.62,8.43 51.78,8.43 177.34,16.86 20.06,8.42 68.61,8.43 177.35,16.86 3.23,8.43 164.24,16.86 78.81,8.43 77.33,16.85 135.55,16.86 39.21,8.43 28.56,8.43 67.78,8.43 155.01,25.29 54.47,8.43 96.87,25.29 71.64,16.86 20.8,8.43 16.65,8.43 41.19,8.43 41.19,16.85 34.85,8.43 10.68,8.43 21.06,8.43 24.47,8.43 62.34,8.43 1.14,8.43 197.88,16.86 53.4,8.42 16.02,8.43 0.41,8.43 30.51,16.86 26.29,16.86 12.2,8.43 0,0"
             style="fill:none;stroke:#00bfbf;stroke-width:10;stroke-linecap:square;stroke-linejoin:round;stroke-miterlimit:100000;stroke-dasharray:none;stroke-opacity:1"
             id="path40"
             inkscape:connector-curvature="0" /><path
             d="m 1140.89,958.172 58.75,160.148 1.9,16.86 1.44,16.86 1.42,16.86 2.54,16.86 41.02,101.15 3.42,25.29 5.17,75.86 3.62,8.43 0.88,16.86 3.7,42.15 2.98,8.43 0.72,8.43 3.06,8.43 3.78,25.28 1.32,8.43 82.3,168.59 6.41,33.71 99.88,177.02 2.6,16.86 3.95,42.14 1.98,25.29 0.98,8.43 2.88,8.43 21.56,33.72 2.48,16.86 4.62,50.57 0.92,16.86 1.84,25.29 2.22,33.71 0.93,8.43 2.16,8.43 1.23,16.86 5.72,50.58 152.56,193.87 0.78,16.86 13.46,16.86 0.67,16.86 22.46,25.29 7.29,8.43 0.42,16.85 59.71,42.15 877.9,615.34 24.36,33.71 118.56,50.58 30.59,33.71 7.81,16.86 4.55,16.86 3.27,8.43 5.2,8.43 8.46,8.43 1.29,8.43 6.03,8.43 1.15,8.43 4.88,8.43 6.02,16.86 6.03,8.42 0.44,8.43 24.55,8.43 48.53,42.15 1.58,8.43 8.22,16.86 1.8,16.86 4.12,8.43 5.93,8.42 17.51,8.43 29.36,8.43 24.89,16.86 4.47,8.43 5.96,8.43 2.54,8.43 12.98,8.43 7.88,8.43 5.09,8.43 135.15,33.71 224.38,101.16 15.41,8.42 3.29,8.43 18.7,8.43 5.14,16.86 13.56,8.43 4.72,8.43 3.12,16.86 5.72,8.43 5.13,33.71 14.16,8.43 172.49,50.58 67.16,16.86 145.08,33.72 39.21,8.43 155.71,16.85 94.05,16.86 89.55,8.43 58.66,8.43 30.88,8.43 61.76,8.43 0.74,16.86 62.48,8.42 29.41,8.43 33.09,25.29 13.23,8.43 19.85,8.43 26.46,25.29 2.94,8.43 36.77,8.43 2.4,8.43 4.21,8.43 19.12,8.43 27.2,8.43 35.29,8.43 53.13,8.43 68.17,8.43 121.31,8.42 36.56,16.86 36.57,8.43 87.19,8.43 4.9,8.43 92.09,8.43 54.9,8.43 8.44,8.43 46.45,8.42 54.89,8.43 36.08,8.43 18.82,8.43 109.78,16.86 8.82,16.86 0,0"
             style="fill:none;stroke:#bf00bf;stroke-width:10;stroke-linecap:square;stroke-linejoin:round;stroke-miterlimit:100000;stroke-dasharray:none;stroke-opacity:1"
             id="path42"
             inkscape:connector-curvature="0" /><path
             d="m 1140.89,958.172 2.96,8.426 1.95,8.429 4.97,16.86 5,16.863 5.07,16.86 11.3,33.71 9.42,33.72 5.32,16.86 9.73,33.71 12.05,33.72 6.77,25.29 73.55,177.01 23.97,75.87 10.67,25.29 2.79,8.42 11.18,25.29 97.04,261.31 105.64,177.01 41.78,84.3 4.3,8.43 40.25,59 4.6,8.43 29.84,42.15 24.5,42.14 13.25,16.86 10.26,16.86 7.24,16.86 27.77,33.72 10.94,16.86 231.71,244.44 7.23,8.43 124.02,109.58 8.3,8.43 73.01,59.01 27.32,25.29 56.21,42.14 29.69,25.29 35.2,25.29 10.44,8.42 16.88,16.86 89.77,67.44 328.43,177.01 108.37,50.58 16.57,8.43 98.21,42.14 55.02,25.29 475.57,168.59 44.32,16.86 53.43,16.85 62.22,16.86 1.06,8.43 158.86,42.15 8.79,8.43 27.5,8.43 141.21,33.71 3.96,8.43 72.58,16.86 0.78,8.43 70.7,16.86 6.63,8.43 22.37,8.43 89.27,25.29 33.97,8.42 1.6,8.43 35.56,8.43 95.12,16.86 13.33,8.43 30.13,8.43 4.1,8.43 26.02,8.43 21.54,8.43 47.57,16.86 47.56,16.86 98.91,25.28 7.34,8.43 114.5,25.29 7.67,8.43 48.15,8.43 5.53,8.43 42.63,8.43 35.37,16.86 35.39,8.42 16.66,8.43 5.01,8.43 21.68,8.43 38.58,8.43 3.43,8.43 70.29,16.86 20.28,8.43 31.41,16.86 4.51,25.29 4.51,8.43 2.06,8.43 14.92,16.85 14.17,8.43 2.66,8.43 16.33,8.43 7.89,8.43 1.5,16.86 2.78,8.43 79.93,16.85 0.6,8.43 42.48,16.86 30.31,8.43 18.96,16.86 2.9,16.86 1.59,8.43 5.73,8.43 5.79,42.15 8.47,8.43 2.52,8.43 11.61,8.43 0.5,8.42 5.35,8.43 3.45,8.43 7.26,42.15 11.51,33.71 1.3,8.43 9.29,16.86 14.05,16.86 0,0"
             style="fill:none;stroke:#bfbf00;stroke-width:10;stroke-linecap:square;stroke-linejoin:round;stroke-miterlimit:100000;stroke-dasharray:none;stroke-opacity:1"
             id="path44"
             inkscape:connector-curvature="0" /></g></g><g
         id="g46"><g
           id="g48"
           clip-path="url(#clipPath50)"><path
             d="m 1140.89,4414.17 4464,0"
             style="fill:none;stroke:#000000;stroke-width:10;stroke-linecap:square;stroke-linejoin:miter;stroke-miterlimit:100000;stroke-dasharray:none;stroke-opacity:1"
             id="path54"
             inkscape:connector-curvature="0" /><path
             d="m 1140.89,958.172 4464,0"
             style="fill:none;stroke:#000000;stroke-width:10;stroke-linecap:square;stroke-linejoin:miter;stroke-miterlimit:100000;stroke-dasharray:none;stroke-opacity:1"
             id="path56"
             inkscape:connector-curvature="0" /><path
             d="m 5604.89,958.172 0,3455.998"
             style="fill:none;stroke:#000000;stroke-width:10;stroke-linecap:square;stroke-linejoin:miter;stroke-miterlimit:100000;stroke-dasharray:none;stroke-opacity:1"
             id="path58"
             inkscape:connector-curvature="0" /><path
             d="m 1140.89,958.172 0,3455.998"
             style="fill:none;stroke:#000000;stroke-width:10;stroke-linecap:square;stroke-linejoin:miter;stroke-miterlimit:100000;stroke-dasharray:none;stroke-opacity:1"
             id="path60"
             inkscape:connector-curvature="0" /><path
             d="m 1140.9,958.172 0,40"
             style="fill:#000000;fill-opacity:1;fill-rule:nonzero;stroke:none"
             id="path62"
             inkscape:connector-curvature="0" /><path
             d="m 1140.9,958.172 0,40"
             style="fill:none;stroke:#000000;stroke-width:5;stroke-linecap:butt;stroke-linejoin:round;stroke-miterlimit:100000;stroke-dasharray:none;stroke-opacity:1"
             id="path64"
             inkscape:connector-curvature="0" /><path
             d="m 1140.9,4414.17 0,-40"
             style="fill:#000000;fill-opacity:1;fill-rule:nonzero;stroke:none"
             id="path66"
             inkscape:connector-curvature="0" /><path
             d="m 1140.9,4414.17 0,-40"
             style="fill:none;stroke:#000000;stroke-width:5;stroke-linecap:butt;stroke-linejoin:round;stroke-miterlimit:100000;stroke-dasharray:none;stroke-opacity:1"
             id="path68"
             inkscape:connector-curvature="0" /><g
             id="g70"
             transform="scale(10,10)"><text
               transform="matrix(1,0,0,-1,90.2301,58.0203)"
               style="font-variant:normal;font-weight:normal;font-size:30px;font-family:Arial;-inkscape-font-specification:Arial;writing-mode:lr-tb;fill:#000000;fill-opacity:1;fill-rule:nonzero;stroke:none"
               id="text72"><tspan
                 x="0 19.087105 28.623039"
                 y="0"
                 sodipodi:role="line"
                 id="tspan74">0.0</tspan></text>
</g><path
             d="m 2033.7,958.172 0,40"
             style="fill:#000000;fill-opacity:1;fill-rule:nonzero;stroke:none"
             id="path76"
             inkscape:connector-curvature="0" /><path
             d="m 2033.7,958.172 0,40"
             style="fill:none;stroke:#000000;stroke-width:5;stroke-linecap:butt;stroke-linejoin:round;stroke-miterlimit:100000;stroke-dasharray:none;stroke-opacity:1"
             id="path78"
             inkscape:connector-curvature="0" /><path
             d="m 2033.7,4414.17 0,-40"
             style="fill:#000000;fill-opacity:1;fill-rule:nonzero;stroke:none"
             id="path80"
             inkscape:connector-curvature="0" /><path
             d="m 2033.7,4414.17 0,-40"
             style="fill:none;stroke:#000000;stroke-width:5;stroke-linecap:butt;stroke-linejoin:round;stroke-miterlimit:100000;stroke-dasharray:none;stroke-opacity:1"
             id="path82"
             inkscape:connector-curvature="0" /><g
             id="g84"
             transform="scale(10,10)"><text
               transform="matrix(1,0,0,-1,179.51,58.0203)"
               style="font-variant:normal;font-weight:normal;font-size:30px;font-family:Arial;-inkscape-font-specification:Arial;writing-mode:lr-tb;fill:#000000;fill-opacity:1;fill-rule:nonzero;stroke:none"
               id="text86"><tspan
                 x="0 19.086714 28.623053"
                 y="0"
                 sodipodi:role="line"
                 id="tspan88">0.2</tspan></text>
</g><path
             d="m 2926.5,958.172 0,40"
             style="fill:#000000;fill-opacity:1;fill-rule:nonzero;stroke:none"
             id="path90"
             inkscape:connector-curvature="0" /><path
             d="m 2926.5,958.172 0,40"
             style="fill:none;stroke:#000000;stroke-width:5;stroke-linecap:butt;stroke-linejoin:round;stroke-miterlimit:100000;stroke-dasharray:none;stroke-opacity:1"
             id="path92"
             inkscape:connector-curvature="0" /><path
             d="m 2926.5,4414.17 0,-40"
             style="fill:#000000;fill-opacity:1;fill-rule:nonzero;stroke:none"
             id="path94"
             inkscape:connector-curvature="0" /><path
             d="m 2926.5,4414.17 0,-40"
             style="fill:none;stroke:#000000;stroke-width:5;stroke-linecap:butt;stroke-linejoin:round;stroke-miterlimit:100000;stroke-dasharray:none;stroke-opacity:1"
             id="path96"
             inkscape:connector-curvature="0" /><g
             id="g98"
             transform="scale(10,10)"><text
               transform="matrix(1,0,0,-1,268.79,58.0203)"
               style="font-variant:normal;font-weight:normal;font-size:30px;font-family:Arial;-inkscape-font-specification:Arial;writing-mode:lr-tb;fill:#000000;fill-opacity:1;fill-rule:nonzero;stroke:none"
               id="text100"><tspan
                 x="0 19.086714 28.623053"
                 y="0"
                 sodipodi:role="line"
                 id="tspan102">0.4</tspan></text>
</g><path
             d="m 3819.3,958.172 0,40"
             style="fill:#000000;fill-opacity:1;fill-rule:nonzero;stroke:none"
             id="path104"
             inkscape:connector-curvature="0" /><path
             d="m 3819.3,958.172 0,40"
             style="fill:none;stroke:#000000;stroke-width:5;stroke-linecap:butt;stroke-linejoin:round;stroke-miterlimit:100000;stroke-dasharray:none;stroke-opacity:1"
             id="path106"
             inkscape:connector-curvature="0" /><path
             d="m 3819.3,4414.17 0,-40"
             style="fill:#000000;fill-opacity:1;fill-rule:nonzero;stroke:none"
             id="path108"
             inkscape:connector-curvature="0" /><path
             d="m 3819.3,4414.17 0,-40"
             style="fill:none;stroke:#000000;stroke-width:5;stroke-linecap:butt;stroke-linejoin:round;stroke-miterlimit:100000;stroke-dasharray:none;stroke-opacity:1"
             id="path110"
             inkscape:connector-curvature="0" /><g
             id="g112"
             transform="scale(10,10)"><text
               transform="matrix(1,0,0,-1,358.07,58.0203)"
               style="font-variant:normal;font-weight:normal;font-size:30px;font-family:Arial;-inkscape-font-specification:Arial;writing-mode:lr-tb;fill:#000000;fill-opacity:1;fill-rule:nonzero;stroke:none"
               id="text114"><tspan
                 x="0 19.086714 28.623053"
                 y="0"
                 sodipodi:role="line"
                 id="tspan116">0.6</tspan></text>
</g><path
             d="m 4712.1,958.172 0,40"
             style="fill:#000000;fill-opacity:1;fill-rule:nonzero;stroke:none"
             id="path118"
             inkscape:connector-curvature="0" /><path
             d="m 4712.1,958.172 0,40"
             style="fill:none;stroke:#000000;stroke-width:5;stroke-linecap:butt;stroke-linejoin:round;stroke-miterlimit:100000;stroke-dasharray:none;stroke-opacity:1"
             id="path120"
             inkscape:connector-curvature="0" /><path
             d="m 4712.1,4414.17 0,-40"
             style="fill:#000000;fill-opacity:1;fill-rule:nonzero;stroke:none"
             id="path122"
             inkscape:connector-curvature="0" /><path
             d="m 4712.1,4414.17 0,-40"
             style="fill:none;stroke:#000000;stroke-width:5;stroke-linecap:butt;stroke-linejoin:round;stroke-miterlimit:100000;stroke-dasharray:none;stroke-opacity:1"
             id="path124"
             inkscape:connector-curvature="0" /><g
             id="g126"
             transform="scale(10,10)"><text
               transform="matrix(1,0,0,-1,447.35,58.0203)"
               style="font-variant:normal;font-weight:normal;font-size:30px;font-family:Arial;-inkscape-font-specification:Arial;writing-mode:lr-tb;fill:#000000;fill-opacity:1;fill-rule:nonzero;stroke:none"
               id="text128"><tspan
                 x="0 19.08713 28.623075"
                 y="0"
                 sodipodi:role="line"
                 id="tspan130">0.8</tspan></text>
</g><path
             d="m 5604.9,958.172 0,40"
             style="fill:#000000;fill-opacity:1;fill-rule:nonzero;stroke:none"
             id="path132"
             inkscape:connector-curvature="0" /><path
             d="m 5604.9,958.172 0,40"
             style="fill:none;stroke:#000000;stroke-width:5;stroke-linecap:butt;stroke-linejoin:round;stroke-miterlimit:100000;stroke-dasharray:none;stroke-opacity:1"
             id="path134"
             inkscape:connector-curvature="0" /><path
             d="m 5604.9,4414.17 0,-40"
             style="fill:#000000;fill-opacity:1;fill-rule:nonzero;stroke:none"
             id="path136"
             inkscape:connector-curvature="0" /><path
             d="m 5604.9,4414.17 0,-40"
             style="fill:none;stroke:#000000;stroke-width:5;stroke-linecap:butt;stroke-linejoin:round;stroke-miterlimit:100000;stroke-dasharray:none;stroke-opacity:1"
             id="path138"
             inkscape:connector-curvature="0" /><g
             id="g140"
             transform="scale(10,10)"><text
               transform="matrix(1,0,0,-1,536.63,58.0203)"
               style="font-variant:normal;font-weight:normal;font-size:30px;font-family:Arial;-inkscape-font-specification:Arial;writing-mode:lr-tb;fill:#000000;fill-opacity:1;fill-rule:nonzero;stroke:none"
               id="text142"><tspan
                 x="0 19.08713 28.623075"
                 y="0"
                 sodipodi:role="line"
                 id="tspan144">1.0</tspan></text>
<text
               transform="matrix(1,0,0,-1,170.125,16.3953)"
               style="font-variant:normal;font-weight:normal;font-size:40px;font-family:Arial;-inkscape-font-specification:Arial;writing-mode:lr-tb;fill:#000000;fill-opacity:1;fill-rule:nonzero;stroke:none"
               id="text146"><tspan
                 x="0"
                 sodipodi:role="line"
                 id="tspan148"
                 y="0">Densité normalisée</tspan></text>
</g><path
             d="m 1140.9,958.172 40,0"
             style="fill:#000000;fill-opacity:1;fill-rule:nonzero;stroke:none"
             id="path150"
             inkscape:connector-curvature="0" /><path
             d="m 1140.9,958.172 40,0"
             style="fill:none;stroke:#000000;stroke-width:5;stroke-linecap:butt;stroke-linejoin:round;stroke-miterlimit:100000;stroke-dasharray:none;stroke-opacity:1"
             id="path152"
             inkscape:connector-curvature="0" /><path
             d="m 5604.9,958.172 -40,0"
             style="fill:#000000;fill-opacity:1;fill-rule:nonzero;stroke:none"
             id="path154"
             inkscape:connector-curvature="0" /><path
             d="m 5604.9,958.172 -40,0"
             style="fill:none;stroke:#000000;stroke-width:5;stroke-linecap:butt;stroke-linejoin:round;stroke-miterlimit:100000;stroke-dasharray:none;stroke-opacity:1"
             id="path156"
             inkscape:connector-curvature="0" /><g
             id="g158"
             transform="scale(10,10)"><text
               transform="matrix(1,0,0,-1,51.3707,87.5359)"
               style="font-variant:normal;font-weight:normal;font-size:30px;font-family:Arial;-inkscape-font-specification:Arial;writing-mode:lr-tb;fill:#000000;fill-opacity:1;fill-rule:nonzero;stroke:none"
               id="text160"><tspan
                 x="0 19.087111 28.623045"
                 y="0"
                 sodipodi:role="line"
                 id="tspan162">0.0</tspan></text>
</g><path
             d="m 1140.9,1649.37 40,0"
             style="fill:#000000;fill-opacity:1;fill-rule:nonzero;stroke:none"
             id="path164"
             inkscape:connector-curvature="0" /><path
             d="m 1140.9,1649.37 40,0"
             style="fill:none;stroke:#000000;stroke-width:5;stroke-linecap:butt;stroke-linejoin:round;stroke-miterlimit:100000;stroke-dasharray:none;stroke-opacity:1"
             id="path166"
             inkscape:connector-curvature="0" /><path
             d="m 5604.9,1649.37 -40,0"
             style="fill:#000000;fill-opacity:1;fill-rule:nonzero;stroke:none"
             id="path168"
             inkscape:connector-curvature="0" /><path
             d="m 5604.9,1649.37 -40,0"
             style="fill:none;stroke:#000000;stroke-width:5;stroke-linecap:butt;stroke-linejoin:round;stroke-miterlimit:100000;stroke-dasharray:none;stroke-opacity:1"
             id="path170"
             inkscape:connector-curvature="0" /><g
             id="g172"
             transform="scale(10,10)"><text
               transform="matrix(1,0,0,-1,51.3707,156.656)"
               style="font-variant:normal;font-weight:normal;font-size:30px;font-family:Arial;-inkscape-font-specification:Arial;writing-mode:lr-tb;fill:#000000;fill-opacity:1;fill-rule:nonzero;stroke:none"
               id="text174"><tspan
                 x="0 19.087111 28.623045"
                 y="0"
                 sodipodi:role="line"
                 id="tspan176">0.2</tspan></text>
</g><path
             d="m 1140.9,2340.57 40,0"
             style="fill:#000000;fill-opacity:1;fill-rule:nonzero;stroke:none"
             id="path178"
             inkscape:connector-curvature="0" /><path
             d="m 1140.9,2340.57 40,0"
             style="fill:none;stroke:#000000;stroke-width:5;stroke-linecap:butt;stroke-linejoin:round;stroke-miterlimit:100000;stroke-dasharray:none;stroke-opacity:1"
             id="path180"
             inkscape:connector-curvature="0" /><path
             d="m 5604.9,2340.57 -40,0"
             style="fill:#000000;fill-opacity:1;fill-rule:nonzero;stroke:none"
             id="path182"
             inkscape:connector-curvature="0" /><path
             d="m 5604.9,2340.57 -40,0"
             style="fill:none;stroke:#000000;stroke-width:5;stroke-linecap:butt;stroke-linejoin:round;stroke-miterlimit:100000;stroke-dasharray:none;stroke-opacity:1"
             id="path184"
             inkscape:connector-curvature="0" /><g
             id="g186"
             transform="scale(10,10)"><text
               transform="matrix(1,0,0,-1,51.3707,225.776)"
               style="font-variant:normal;font-weight:normal;font-size:30px;font-family:Arial;-inkscape-font-specification:Arial;writing-mode:lr-tb;fill:#000000;fill-opacity:1;fill-rule:nonzero;stroke:none"
               id="text188"><tspan
                 x="0 19.087111 28.623045"
                 y="0"
                 sodipodi:role="line"
                 id="tspan190">0.4</tspan></text>
</g><path
             d="m 1140.9,3031.77 40,0"
             style="fill:#000000;fill-opacity:1;fill-rule:nonzero;stroke:none"
             id="path192"
             inkscape:connector-curvature="0" /><path
             d="m 1140.9,3031.77 40,0"
             style="fill:none;stroke:#000000;stroke-width:5;stroke-linecap:butt;stroke-linejoin:round;stroke-miterlimit:100000;stroke-dasharray:none;stroke-opacity:1"
             id="path194"
             inkscape:connector-curvature="0" /><path
             d="m 5604.9,3031.77 -40,0"
             style="fill:#000000;fill-opacity:1;fill-rule:nonzero;stroke:none"
             id="path196"
             inkscape:connector-curvature="0" /><path
             d="m 5604.9,3031.77 -40,0"
             style="fill:none;stroke:#000000;stroke-width:5;stroke-linecap:butt;stroke-linejoin:round;stroke-miterlimit:100000;stroke-dasharray:none;stroke-opacity:1"
             id="path198"
             inkscape:connector-curvature="0" /><g
             id="g200"
             transform="scale(10,10)"><text
               transform="matrix(1,0,0,-1,51.3707,294.896)"
               style="font-variant:normal;font-weight:normal;font-size:30px;font-family:Arial;-inkscape-font-specification:Arial;writing-mode:lr-tb;fill:#000000;fill-opacity:1;fill-rule:nonzero;stroke:none"
               id="text202"><tspan
                 x="0 19.087111 28.623045"
                 y="0"
                 sodipodi:role="line"
                 id="tspan204">0.6</tspan></text>
</g><path
             d="m 1140.9,3722.97 40,0"
             style="fill:#000000;fill-opacity:1;fill-rule:nonzero;stroke:none"
             id="path206"
             inkscape:connector-curvature="0" /><path
             d="m 1140.9,3722.97 40,0"
             style="fill:none;stroke:#000000;stroke-width:5;stroke-linecap:butt;stroke-linejoin:round;stroke-miterlimit:100000;stroke-dasharray:none;stroke-opacity:1"
             id="path208"
             inkscape:connector-curvature="0" /><path
             d="m 5604.9,3722.97 -40,0"
             style="fill:#000000;fill-opacity:1;fill-rule:nonzero;stroke:none"
             id="path210"
             inkscape:connector-curvature="0" /><path
             d="m 5604.9,3722.97 -40,0"
             style="fill:none;stroke:#000000;stroke-width:5;stroke-linecap:butt;stroke-linejoin:round;stroke-miterlimit:100000;stroke-dasharray:none;stroke-opacity:1"
             id="path212"
             inkscape:connector-curvature="0" /><g
             id="g214"
             transform="scale(10,10)"><text
               transform="matrix(1,0,0,-1,51.3707,364.016)"
               style="font-variant:normal;font-weight:normal;font-size:30px;font-family:Arial;-inkscape-font-specification:Arial;writing-mode:lr-tb;fill:#000000;fill-opacity:1;fill-rule:nonzero;stroke:none"
               id="text216"><tspan
                 x="0 19.087111 28.623045"
                 y="0"
                 sodipodi:role="line"
                 id="tspan218">0.8</tspan></text>
</g><path
             d="m 1140.9,4414.17 40,0"
             style="fill:#000000;fill-opacity:1;fill-rule:nonzero;stroke:none"
             id="path220"
             inkscape:connector-curvature="0" /><path
             d="m 1140.9,4414.17 40,0"
             style="fill:none;stroke:#000000;stroke-width:5;stroke-linecap:butt;stroke-linejoin:round;stroke-miterlimit:100000;stroke-dasharray:none;stroke-opacity:1"
             id="path222"
             inkscape:connector-curvature="0" /><path
             d="m 5604.9,4414.17 -40,0"
             style="fill:#000000;fill-opacity:1;fill-rule:nonzero;stroke:none"
             id="path224"
             inkscape:connector-curvature="0" /><path
             d="m 5604.9,4414.17 -40,0"
             style="fill:none;stroke:#000000;stroke-width:5;stroke-linecap:butt;stroke-linejoin:round;stroke-miterlimit:100000;stroke-dasharray:none;stroke-opacity:1"
             id="path226"
             inkscape:connector-curvature="0" /><g
             id="g228"
             transform="scale(10,10)"><text
               transform="matrix(1,0,0,-1,51.3707,433.136)"
               style="font-variant:normal;font-weight:normal;font-size:30px;font-family:Arial;-inkscape-font-specification:Arial;writing-mode:lr-tb;fill:#000000;fill-opacity:1;fill-rule:nonzero;stroke:none"
               id="text230"><tspan
                 x="0 19.087111 28.623045"
                 y="0"
                 sodipodi:role="line"
                 id="tspan232">1.0</tspan></text>
<text
               transform="matrix(0,1,1,0,38.0426,234.914)"
               style="font-variant:normal;font-weight:normal;font-size:40px;font-family:Arial;-inkscape-font-specification:Arial;writing-mode:lr-tb;fill:#000000;fill-opacity:1;fill-rule:nonzero;stroke:none"
               id="text234"><tspan
                 x="0 27.929693 53.320316"
                 y="0"
                 sodipodi:role="line"
                 id="tspan236">Cdf</tspan></text>
</g></g></g></g></g></svg>