<?xml version="1.0" encoding="UTF-8" standalone="no"?>
<!-- Created with Inkscape (http://www.inkscape.org/) -->

<svg
   xmlns:dc="http://purl.org/dc/elements/1.1/"
   xmlns:cc="http://creativecommons.org/ns#"
   xmlns:rdf="http://www.w3.org/1999/02/22-rdf-syntax-ns#"
   xmlns:svg="http://www.w3.org/2000/svg"
   xmlns="http://www.w3.org/2000/svg"
   xmlns:sodipodi="http://sodipodi.sourceforge.net/DTD/sodipodi-0.dtd"
   xmlns:inkscape="http://www.inkscape.org/namespaces/inkscape"
   id="svg2"
   version="1.1"
   inkscape:version="0.91 r13725"
   xml:space="preserve"
   width="513.75"
   height="247.5"
   viewBox="0 0 513.75 247.5"
   sodipodi:docname="exemple2.svg"><metadata
     id="metadata8"><rdf:RDF><cc:Work
         rdf:about=""><dc:format>image/svg+xml</dc:format><dc:type
           rdf:resource="http://purl.org/dc/dcmitype/StillImage" /><dc:title></dc:title></cc:Work></rdf:RDF></metadata><defs
     id="defs6" /><sodipodi:namedview
     pagecolor="#ffffff"
     bordercolor="#666666"
     borderopacity="1"
     objecttolerance="10"
     gridtolerance="10"
     guidetolerance="10"
     inkscape:pageopacity="0"
     inkscape:pageshadow="2"
     inkscape:window-width="1920"
     inkscape:window-height="1143"
     id="namedview4"
     showgrid="false"
     inkscape:zoom="3.7767416"
     inkscape:cx="102.72862"
     inkscape:cy="54.440968"
     inkscape:window-x="1366"
     inkscape:window-y="0"
     inkscape:window-maximized="1"
     inkscape:current-layer="g12" /><g
     id="g10"
     inkscape:groupmode="layer"
     inkscape:label="ink_ext_XXXXXX"
     transform="matrix(1.25,0,0,-1.25,0,247.5)"><g
       id="g12"
       transform="scale(0.1,0.1)"><g
         id="g14"
         transform="scale(1.00106,0.99894)"><path
           d="M 2121.27,1789.47 3848.18,940.176"
           style="fill:none;stroke:#999999;stroke-width:28.30999947;stroke-linecap:butt;stroke-linejoin:round;stroke-miterlimit:10;stroke-dasharray:none;stroke-opacity:1"
           id="path16"
           inkscape:connector-curvature="0" /></g><g
         id="g18"
         transform="scale(1.00106,0.99894)"><path
           d="m 252.81,1789.47 1896.77,0"
           style="fill:none;stroke:#999999;stroke-width:28.30999947;stroke-linecap:butt;stroke-linejoin:round;stroke-miterlimit:10;stroke-dasharray:none;stroke-opacity:1"
           id="path20"
           inkscape:connector-curvature="0" /></g><g
         id="g22"
         transform="scale(1.00106,0.99894)"><path
           d="m 252.81,515.527 0,1273.943"
           style="fill:none;stroke:#999999;stroke-width:28.30999947;stroke-linecap:butt;stroke-linejoin:round;stroke-miterlimit:10;stroke-dasharray:none;stroke-opacity:1"
           id="path24"
           inkscape:connector-curvature="0" /></g><g
         id="g26"
         transform="scale(1.00106,0.99894)"><path
           d="m 1157.03,204.115 990.85,0"
           style="fill:none;stroke:#0167ff;stroke-width:28.30999947;stroke-linecap:butt;stroke-linejoin:round;stroke-miterlimit:10;stroke-dasharray:none;stroke-opacity:1"
           id="path28"
           inkscape:connector-curvature="0" /></g><g
         id="g30"
         transform="scale(1.00106,0.99894)"><path
           d="m 1157.03,1053.42 0,-849.305"
           style="fill:none;stroke:#0167ff;stroke-width:28.30999947;stroke-linecap:butt;stroke-linejoin:round;stroke-miterlimit:10;stroke-dasharray:none;stroke-opacity:1"
           id="path32"
           inkscape:connector-curvature="0" /></g><g
         id="g34"
         transform="scale(1.00106,0.99894)"><path
           d="m 1157.03,204.115 990.85,849.305"
           style="fill:none;stroke:#0167ff;stroke-width:28.30999947;stroke-linecap:butt;stroke-linejoin:round;stroke-miterlimit:10;stroke-dasharray:none;stroke-opacity:1"
           id="path36"
           inkscape:connector-curvature="0" /></g><g
         id="g38"
         transform="scale(1.00106,0.99894)"><path
           d="M 2147.88,204.115 1157.03,1053.42"
           style="fill:none;stroke:#0167ff;stroke-width:28.30999947;stroke-linecap:butt;stroke-linejoin:round;stroke-miterlimit:10;stroke-dasharray:none;stroke-opacity:1"
           id="path40"
           inkscape:connector-curvature="0" /></g><g
         id="g42"
         transform="scale(1.00106,0.99894)"><path
           d="m 2147.88,1053.42 0,-849.305"
           style="fill:none;stroke:#0167ff;stroke-width:28.30999947;stroke-linecap:butt;stroke-linejoin:round;stroke-miterlimit:10;stroke-dasharray:none;stroke-opacity:1"
           id="path44"
           inkscape:connector-curvature="0" /></g><g
         id="g46"
         transform="scale(1.00106,0.99894)"><path
           d="m 2121.27,204.115 877.61,424.649"
           style="fill:none;stroke:#0167ff;stroke-width:28.30999947;stroke-linecap:butt;stroke-linejoin:round;stroke-miterlimit:10;stroke-dasharray:none;stroke-opacity:1"
           id="path48"
           inkscape:connector-curvature="0" /></g><g
         id="g50"
         transform="scale(1.00106,0.99894)"><path
           d="M 2121.27,1025.11 2998.88,628.764"
           style="fill:none;stroke:#0167ff;stroke-width:28.30999947;stroke-linecap:butt;stroke-linejoin:round;stroke-miterlimit:10;stroke-dasharray:none;stroke-opacity:1"
           id="path52"
           inkscape:connector-curvature="0" /></g><g
         id="g54"
         transform="scale(1.00106,0.99894)"><path
           d="m 1157.03,1053.42 990.85,0"
           style="fill:none;stroke:#ff3434;stroke-width:28.30999947;stroke-linecap:butt;stroke-linejoin:round;stroke-miterlimit:10;stroke-dasharray:none;stroke-opacity:1"
           id="path56"
           inkscape:connector-curvature="0" /></g><g
         id="g58"
         transform="scale(1.00106,0.99894)"><path
           d="m 2994.92,624.803 877.6,424.647"
           style="fill:none;stroke:#ff3434;stroke-width:28.30999947;stroke-linecap:butt;stroke-linejoin:round;stroke-miterlimit:10;stroke-dasharray:none;stroke-opacity:1"
           id="path60"
           inkscape:connector-curvature="0" /></g><g
         id="g62"
         transform="scale(1.00106,0.99894)"><path
           d="m 2994.92,628.764 877.6,-424.649"
           style="fill:none;stroke:#ff3434;stroke-width:28.30999947;stroke-linecap:butt;stroke-linejoin:round;stroke-miterlimit:10;stroke-dasharray:none;stroke-opacity:1"
           id="path64"
           inkscape:connector-curvature="0" /></g><g
         id="g66"
         transform="scale(1.00106,0.99894)"><path
           d="m 2133.44,1813.82 0,-849.298"
           style="fill:none;stroke:#ff3434;stroke-width:28.30999947;stroke-linecap:butt;stroke-linejoin:round;stroke-miterlimit:10;stroke-dasharray:none;stroke-opacity:1"
           id="path68"
           inkscape:connector-curvature="0" /></g><path
         d="m 2135.7,1973.38 c 105.43,0 186.19,-80.6 186.19,-185.8 0,-105.2 -80.76,-185.8 -186.19,-185.8 -105.42,0 -186.19,80.6 -186.19,185.8 0,105.2 80.77,185.8 186.19,185.8"
         style="fill:#ff6767;fill-opacity:1;fill-rule:evenodd;stroke:none"
         id="path70"
         inkscape:connector-curvature="0" /><g
         id="g72"
         transform="scale(1.00106,0.99894)"><path
           d="m 2133.44,1975.47 c 105.32,0 186,-80.68 186,-186 0,-105.31 -80.68,-185.99 -186,-185.99 -105.31,0 -186,80.68 -186,185.99 0,105.32 80.69,186 186,186 z"
           style="fill:none;stroke:#343434;stroke-width:8.49300003;stroke-linecap:butt;stroke-linejoin:round;stroke-miterlimit:10;stroke-dasharray:none;stroke-opacity:1"
           id="path74"
           inkscape:connector-curvature="0" /></g><g
         id="g76"
         transform="scale(1.00106,0.99894)"><path
           d="m 1947.44,1975.47 0,0 z"
           style="fill:none;stroke:#343434;stroke-width:8.49300003;stroke-linecap:butt;stroke-linejoin:round;stroke-miterlimit:10;stroke-dasharray:none;stroke-opacity:1"
           id="path78"
           inkscape:connector-curvature="0" /></g><g
         id="g80"
         transform="scale(1.00106,0.99894)"><path
           d="m 2319.72,1603.2 0,0 z"
           style="fill:none;stroke:#343434;stroke-width:8.49300003;stroke-linecap:butt;stroke-linejoin:round;stroke-miterlimit:10;stroke-dasharray:none;stroke-opacity:1"
           id="path82"
           inkscape:connector-curvature="0" /></g><path
         d="m 2178.5,1759.58 c 0,-11.31 -3.69,-20.36 -11.06,-26.58 -7.37,-6.51 -17.57,-9.62 -31.17,-9.62 -13.32,0 -23.81,3.11 -31.18,9.33 -7.36,6.23 -11.05,15.28 -11.05,26.59 0,8.2 2.27,14.99 6.8,20.36 4.54,5.66 10.49,9.05 17.86,10.18 l 0,0.29 c -6.8,1.69 -12.19,5.08 -16.16,10.17 -3.68,5.38 -5.66,11.6 -5.66,18.67 0,9.33 3.4,16.97 10.48,22.91 7.09,5.94 16.72,8.76 28.62,8.76 11.91,0 21.54,-2.82 28.63,-8.48 7.09,-5.94 10.77,-13.57 10.77,-23.47 0,-7.07 -1.99,-13.3 -5.95,-18.39 -3.97,-5.37 -9.36,-8.76 -16.16,-9.89 l 0,-0.57 c 7.94,-1.13 14.17,-4.52 18.43,-9.9 4.53,-5.37 6.8,-12.16 6.8,-20.36 z m -19.56,58.26 c 0,14.14 -7.65,20.93 -22.96,20.93 -7.64,0 -13.31,-1.7 -17.28,-5.09 -3.68,-3.68 -5.67,-8.77 -5.67,-15.84 0,-7.07 1.99,-12.45 5.95,-16.12 3.97,-3.68 9.64,-5.66 17,-5.66 7.38,0 13.04,1.7 17.01,5.09 3.97,3.4 5.95,9.05 5.95,16.69 z m 3.12,-56.84 c 0,7.63 -2.27,13.57 -7.09,17.53 -4.53,3.68 -10.77,5.65 -18.99,5.65 -8.21,0 -14.45,-1.97 -18.98,-6.22 -4.54,-4.24 -6.8,-9.89 -6.8,-17.25 0,-16.96 8.78,-25.45 26.07,-25.45 8.78,0 15.02,1.98 19.27,6.22 4.25,3.96 6.52,10.75 6.52,19.52"
         style="fill:#010101;fill-opacity:1;fill-rule:evenodd;stroke:none"
         id="path84"
         inkscape:connector-curvature="0" /><g
         id="g86"
         transform="scale(1.00106,0.99894)"><path
           d="m 252.81,624.803 877.61,424.647"
           style="fill:none;stroke:#ff3434;stroke-width:28.30999947;stroke-linecap:butt;stroke-linejoin:round;stroke-miterlimit:10;stroke-dasharray:none;stroke-opacity:1"
           id="path88"
           inkscape:connector-curvature="0" /></g><g
         id="g90"
         transform="scale(1.00106,0.99894)"><path
           d="M 252.81,628.764 1130.42,204.115"
           style="fill:none;stroke:#ff3434;stroke-width:28.30999947;stroke-linecap:butt;stroke-linejoin:round;stroke-miterlimit:10;stroke-dasharray:none;stroke-opacity:1"
           id="path92"
           inkscape:connector-curvature="0" /></g><path
         d="m 2989.87,801.738 c 105.42,0 186.19,-80.597 186.19,-185.8 0,-105.2 -80.77,-185.797 -186.19,-185.797 -105.42,0 -186.19,80.597 -186.19,185.797 0,105.203 80.77,185.8 186.19,185.8"
         style="fill:#3499ff;fill-opacity:1;fill-rule:evenodd;stroke:none"
         id="path94"
         inkscape:connector-curvature="0" /><g
         id="g96"
         transform="scale(1.00106,0.99894)"><path
           d="m 2986.71,802.589 c 105.31,0 185.99,-80.683 185.99,-185.998 0,-105.311 -80.68,-185.994 -185.99,-185.994 -105.32,0 -186,80.683 -186,185.994 0,105.315 80.68,185.998 186,185.998 z"
           style="fill:none;stroke:#343434;stroke-width:8.49300003;stroke-linecap:butt;stroke-linejoin:round;stroke-miterlimit:10;stroke-dasharray:none;stroke-opacity:1"
           id="path98"
           inkscape:connector-curvature="0" /></g><g
         id="g100"
         transform="scale(1.00106,0.99894)"><path
           d="m 2800.71,802.589 0,0 z"
           style="fill:none;stroke:#343434;stroke-width:8.49300003;stroke-linecap:butt;stroke-linejoin:round;stroke-miterlimit:10;stroke-dasharray:none;stroke-opacity:1"
           id="path102"
           inkscape:connector-curvature="0" /></g><g
         id="g104"
         transform="scale(1.00106,0.99894)"><path
           d="m 3172.99,430.311 0,0 z"
           style="fill:none;stroke:#343434;stroke-width:8.49300003;stroke-linecap:butt;stroke-linejoin:round;stroke-miterlimit:10;stroke-dasharray:none;stroke-opacity:1"
           id="path106"
           inkscape:connector-curvature="0" /></g><path
         d="m 3017.64,581.438 0,-27.997 -15.02,0 0,27.997 -58.09,0 0,12.16 56.68,83.707 16.43,0 0,-83.426 17.57,0 0,-12.441 -17.57,0 z m -15.02,77.769 c 0,-0.281 -0.85,-1.695 -2.26,-4.523 -1.7,-2.829 -2.84,-4.809 -3.41,-5.657 l -31.74,-46.945 -4.82,-6.504 -1.41,-1.699 43.64,0 0,65.328"
         style="fill:#010101;fill-opacity:1;fill-rule:evenodd;stroke:none"
         id="path108"
         inkscape:connector-curvature="0" /><path
         d="m 2135.7,377.539 c 105.43,0 186.19,-80.598 186.19,-185.801 0,-105.2028 -80.76,-185.8005 -186.19,-185.8005 -105.42,0 -186.19,80.5977 -186.19,185.8005 0,105.203 80.77,185.801 186.19,185.801"
         style="fill:#3499ff;fill-opacity:1;fill-rule:evenodd;stroke:none"
         id="path110"
         inkscape:connector-curvature="0" /><g
         id="g112"
         transform="scale(1.00106,0.99894)"><path
           d="m 2133.44,377.94 c 105.32,0 186,-80.684 186,-185.998 0,-105.315 -80.68,-185.9982 -186,-185.9982 -105.31,0 -186,80.6832 -186,185.9982 0,105.314 80.69,185.998 186,185.998 z"
           style="fill:none;stroke:#343434;stroke-width:8.49300003;stroke-linecap:butt;stroke-linejoin:round;stroke-miterlimit:10;stroke-dasharray:none;stroke-opacity:1"
           id="path114"
           inkscape:connector-curvature="0" /></g><g
         id="g116"
         transform="scale(1.00106,0.99894)"><path
           d="m 1947.44,377.94 0,0 z"
           style="fill:none;stroke:#343434;stroke-width:8.49300003;stroke-linecap:butt;stroke-linejoin:round;stroke-miterlimit:10;stroke-dasharray:none;stroke-opacity:1"
           id="path118"
           inkscape:connector-curvature="0" /></g><g
         id="g120"
         transform="scale(1.00106,0.99894)"><path
           d="m 2319.72,5.66225 0,0 z"
           style="fill:none;stroke:#343434;stroke-width:8.49300003;stroke-linecap:butt;stroke-linejoin:round;stroke-miterlimit:10;stroke-dasharray:none;stroke-opacity:1"
           id="path122"
           inkscape:connector-curvature="0" /></g><path
         d="m 2178.21,163.457 c 0,-11.312 -3.68,-20.359 -10.77,-26.582 -7.37,-6.223 -17.57,-9.332 -31.17,-9.332 -12.47,0 -22.39,2.828 -30.04,8.484 -7.37,5.657 -11.91,13.856 -13.32,25.168 l 16.44,1.414 c 1.98,-14.703 11.05,-22.058 26.92,-22.058 7.93,0 14.17,1.98 18.7,5.941 4.54,3.957 6.8,9.895 6.8,17.531 0,6.79 -2.54,11.879 -7.64,15.836 -5.11,3.68 -12.76,5.657 -22.4,5.657 l -9.06,0 0,13.574 8.5,0 c 8.78,0 15.58,1.98 20.4,5.656 4.54,3.676 7.09,9.051 7.09,15.555 0,6.789 -1.98,11.879 -5.95,15.836 -3.97,3.676 -9.64,5.656 -17.29,5.656 -7.08,0 -12.75,-1.695 -17.01,-5.371 -4.25,-3.395 -6.8,-8.484 -7.36,-14.988 l -15.87,1.129 c 1.13,10.183 5.38,18.101 12.46,23.757 7.38,5.657 16.44,8.485 28.06,8.485 12.19,0 21.82,-2.828 28.91,-8.77 6.8,-5.656 10.2,-13.574 10.2,-24.039 0,-7.918 -2.27,-14.137 -6.52,-19.226 -4.53,-4.809 -11.05,-8.204 -19.27,-9.899 l 0,-0.566 c 9.07,-0.848 16.44,-3.961 21.54,-9.051 5.1,-5.371 7.65,-11.879 7.65,-19.797"
         style="fill:#010101;fill-opacity:1;fill-rule:evenodd;stroke:none"
         id="path124"
         inkscape:connector-curvature="0" /><path
         d="m 2135.7,1225.94 c 105.43,0 186.19,-80.6 186.19,-185.8 0,-105.202 -80.76,-185.8 -186.19,-185.8 -105.42,0 -186.19,80.598 -186.19,185.8 0,105.2 80.77,185.8 186.19,185.8"
         style="fill:#3499ff;fill-opacity:1;fill-rule:evenodd;stroke:none"
         id="path126"
         inkscape:connector-curvature="0" /><g
         id="g128"
         transform="scale(1.00106,0.99894)"><path
           d="m 2133.44,1227.24 c 105.32,0 186,-80.69 186,-186 0,-105.311 -80.68,-185.994 -186,-185.994 -105.31,0 -186,80.683 -186,185.994 0,105.31 80.69,186 186,186 z"
           style="fill:none;stroke:#343434;stroke-width:8.49300003;stroke-linecap:butt;stroke-linejoin:round;stroke-miterlimit:10;stroke-dasharray:none;stroke-opacity:1"
           id="path130"
           inkscape:connector-curvature="0" /></g><g
         id="g132"
         transform="scale(1.00106,0.99894)"><path
           d="m 1947.44,1227.24 0,0 z"
           style="fill:none;stroke:#343434;stroke-width:8.49300003;stroke-linecap:butt;stroke-linejoin:round;stroke-miterlimit:10;stroke-dasharray:none;stroke-opacity:1"
           id="path134"
           inkscape:connector-curvature="0" /></g><g
         id="g136"
         transform="scale(1.00106,0.99894)"><path
           d="m 2319.72,854.961 0,0 z"
           style="fill:none;stroke:#343434;stroke-width:8.49300003;stroke-linecap:butt;stroke-linejoin:round;stroke-miterlimit:10;stroke-dasharray:none;stroke-opacity:1"
           id="path138"
           inkscape:connector-curvature="0" /></g><path
         d="m 2095.18,977.641 0,11.027 c 2.83,7.07 6.52,13.012 11.05,18.382 4.25,5.09 8.79,9.9 13.32,14.14 4.82,4.24 9.63,8.2 14.17,11.88 4.82,3.39 8.78,7.07 12.75,10.75 3.69,3.67 6.8,7.35 9.07,11.31 2.27,4.24 3.4,8.48 3.4,13.57 0,6.79 -1.98,12.16 -5.95,15.84 -3.97,3.67 -9.63,5.66 -16.72,5.66 -6.52,0 -12.19,-1.7 -16.44,-5.38 -4.53,-3.68 -7.08,-8.77 -7.93,-15.55 l -16.16,1.41 c 1.42,9.9 5.39,17.82 12.76,23.76 7.08,5.94 16.43,8.76 27.77,8.76 12.47,0 22.11,-2.82 28.91,-8.76 6.8,-5.94 9.91,-14.43 9.91,-25.17 0,-4.81 -0.84,-9.62 -3.11,-14.14 -2.27,-4.81 -5.67,-9.62 -9.92,-14.43 -4.25,-4.81 -12.47,-12.16 -24.94,-22.06 -6.52,-5.37 -11.91,-10.46 -15.87,-14.7 -3.97,-4.526 -6.8,-8.768 -8.79,-13.01 l 64.62,0 0,-13.289 -81.9,0"
         style="fill:#010101;fill-opacity:1;fill-rule:evenodd;stroke:none"
         id="path140"
         inkscape:connector-curvature="0" /><path
         d="m 1168.74,377.539 c 105.43,0 186.19,-80.598 186.19,-185.801 0,-105.2028 -80.76,-185.8005 -186.19,-185.8005 -105.42,0 -185.908,80.5977 -185.908,185.8005 0,105.203 80.488,185.801 185.908,185.801"
         style="fill:#3499ff;fill-opacity:1;fill-rule:evenodd;stroke:none"
         id="path142"
         inkscape:connector-curvature="0" /><g
         id="g144"
         transform="scale(1.00106,0.99894)"><path
           d="m 1167.5,377.94 c 105.32,0 186,-80.684 186,-185.998 0,-105.315 -80.68,-185.9982 -186,-185.9982 -105.31,0 -185.708,80.6832 -185.708,185.9982 0,105.314 80.398,185.998 185.708,185.998 z"
           style="fill:none;stroke:#343434;stroke-width:8.49300003;stroke-linecap:butt;stroke-linejoin:round;stroke-miterlimit:10;stroke-dasharray:none;stroke-opacity:1"
           id="path146"
           inkscape:connector-curvature="0" /></g><g
         id="g148"
         transform="scale(1.00106,0.99894)"><path
           d="m 981.792,377.94 0,0 z"
           style="fill:none;stroke:#343434;stroke-width:8.49300003;stroke-linecap:butt;stroke-linejoin:round;stroke-miterlimit:10;stroke-dasharray:none;stroke-opacity:1"
           id="path150"
           inkscape:connector-curvature="0" /></g><g
         id="g152"
         transform="scale(1.00106,0.99894)"><path
           d="m 1353.78,5.66225 0,0 z"
           style="fill:none;stroke:#343434;stroke-width:8.49300003;stroke-linecap:butt;stroke-linejoin:round;stroke-miterlimit:10;stroke-dasharray:none;stroke-opacity:1"
           id="path154"
           inkscape:connector-curvature="0" /></g><path
         d="m 1212.1,191.172 c 0,-20.645 -3.68,-36.481 -10.77,-47.227 -7.37,-11.027 -18.13,-16.402 -32.31,-16.402 -14.16,0 -24.93,5.375 -32.02,16.121 -7.37,11.027 -10.77,26.863 -10.77,47.508 0,21.211 3.4,37.047 10.49,47.793 6.8,10.465 17.85,15.84 32.87,15.84 14.46,0 25.23,-5.375 32.31,-16.121 6.8,-10.746 10.2,-26.582 10.2,-47.512 z m -15.87,0 c 0,17.816 -2.27,30.824 -6.23,38.746 -4.25,8.199 -11.05,12.16 -20.41,12.16 -9.92,0 -16.72,-3.961 -20.97,-11.879 -4.25,-7.918 -6.52,-20.926 -6.52,-39.027 0,-17.531 2.27,-30.258 6.52,-38.461 4.25,-8.199 11.05,-12.16 20.4,-12.16 9.36,0 16.16,3.961 20.69,12.445 4.25,8.199 6.52,20.926 6.52,38.176"
         style="fill:#010101;fill-opacity:1;fill-rule:evenodd;stroke:none"
         id="path156"
         inkscape:connector-curvature="0" /><path
         d="m 1168.74,1225.94 c 105.43,0 186.19,-80.6 186.19,-185.8 0,-105.202 -80.76,-185.8 -186.19,-185.8 -105.42,0 -185.908,80.598 -185.908,185.8 0,105.2 80.488,185.8 185.908,185.8"
         style="fill:#3499ff;fill-opacity:1;fill-rule:evenodd;stroke:none"
         id="path158"
         inkscape:connector-curvature="0" /><g
         id="g160"
         transform="scale(1.00106,0.99894)"><path
           d="m 1167.5,1227.24 c 105.32,0 186,-80.69 186,-186 0,-105.311 -80.68,-185.994 -186,-185.994 -105.31,0 -185.708,80.683 -185.708,185.994 0,105.31 80.398,186 185.708,186 z"
           style="fill:none;stroke:#343434;stroke-width:8.49300003;stroke-linecap:butt;stroke-linejoin:round;stroke-miterlimit:10;stroke-dasharray:none;stroke-opacity:1"
           id="path162"
           inkscape:connector-curvature="0" /></g><g
         id="g164"
         transform="scale(1.00106,0.99894)"><path
           d="m 981.792,1227.24 0,0 z"
           style="fill:none;stroke:#343434;stroke-width:8.49300003;stroke-linecap:butt;stroke-linejoin:round;stroke-miterlimit:10;stroke-dasharray:none;stroke-opacity:1"
           id="path166"
           inkscape:connector-curvature="0" /></g><g
         id="g168"
         transform="scale(1.00106,0.99894)"><path
           d="m 1353.78,854.961 0,0 z"
           style="fill:none;stroke:#343434;stroke-width:8.49300003;stroke-linecap:butt;stroke-linejoin:round;stroke-miterlimit:10;stroke-dasharray:none;stroke-opacity:1"
           id="path170"
           inkscape:connector-curvature="0" /></g><path
         d="m 1132.75,977.641 0,13.289 31.74,0 0,95.3 -28.06,-19.79 0,14.7 29.2,20.37 14.73,0 0,-110.58 30.04,0 0,-13.289 -77.65,0"
         style="fill:#010101;fill-opacity:1;fill-rule:evenodd;stroke:none"
         id="path172"
         inkscape:connector-curvature="0" /><path
         d="m 3864.44,1221.98 c 105.43,0 186.2,-80.6 186.2,-185.8 0,-105.203 -80.77,-185.801 -186.2,-185.801 -105.42,0 -186.19,80.598 -186.19,185.801 0,105.2 80.77,185.8 186.19,185.8"
         style="fill:#ff6767;fill-opacity:1;fill-rule:evenodd;stroke:none"
         id="path174"
         inkscape:connector-curvature="0" /><g
         id="g176"
         transform="scale(1.00106,0.99894)"><path
           d="m 3860.35,1223.28 c 105.31,0 186,-80.69 186,-186 0,-105.316 -80.69,-185.999 -186,-185.999 -105.31,0 -185.99,80.683 -185.99,185.999 0,105.31 80.68,186 185.99,186 z"
           style="fill:none;stroke:#343434;stroke-width:8.49300003;stroke-linecap:butt;stroke-linejoin:round;stroke-miterlimit:10;stroke-dasharray:none;stroke-opacity:1"
           id="path178"
           inkscape:connector-curvature="0" /></g><g
         id="g180"
         transform="scale(1.00106,0.99894)"><path
           d="m 3674.36,1223.28 0,0 z"
           style="fill:none;stroke:#343434;stroke-width:8.49300003;stroke-linecap:butt;stroke-linejoin:round;stroke-miterlimit:10;stroke-dasharray:none;stroke-opacity:1"
           id="path182"
           inkscape:connector-curvature="0" /></g><g
         id="g184"
         transform="scale(1.00106,0.99894)"><path
           d="m 4046.63,850.999 0,0 z"
           style="fill:none;stroke:#343434;stroke-width:8.49300003;stroke-linecap:butt;stroke-linejoin:round;stroke-miterlimit:10;stroke-dasharray:none;stroke-opacity:1"
           id="path186"
           inkscape:connector-curvature="0" /></g><path
         d="m 3907.23,1014.12 c 0,-13.29 -3.68,-23.472 -11.61,-30.823 -7.66,-7.637 -18.42,-11.313 -32.31,-11.313 -11.34,0 -20.69,2.543 -27.77,7.637 -7.09,4.805 -11.62,12.16 -13.61,21.769 l 16.16,1.7 c 3.4,-12.16 11.9,-18.098 25.79,-18.098 8.5,0 15.01,2.547 19.83,7.637 4.82,5.09 7.37,12.161 7.37,20.921 0,7.92 -2.55,14.15 -7.37,18.95 -4.82,4.81 -11.33,7.07 -19.55,7.07 -4.25,0 -8.22,-0.56 -11.9,-1.98 -3.69,-1.41 -7.37,-3.67 -11.06,-6.79 l -15.58,0 4.25,66.47 70.28,0 0,-13.3 -55.83,0 -2.55,-39.31 c 6.8,5.38 15.3,7.92 25.51,7.92 12.18,0 22.1,-3.67 29.18,-10.74 7.38,-7.07 10.77,-16.41 10.77,-27.72"
         style="fill:#010101;fill-opacity:1;fill-rule:evenodd;stroke:none"
         id="path188"
         inkscape:connector-curvature="0" /><path
         d="m 3864.44,5.9375 c 105.43,0 186.2,80.5977 186.2,185.8005 0,105.203 -80.77,185.801 -186.2,185.801 -105.42,0 -186.19,-80.598 -186.19,-185.801 0,-105.2028 80.77,-185.8005 186.19,-185.8005"
         style="fill:#ff6767;fill-opacity:1;fill-rule:evenodd;stroke:none"
         id="path190"
         inkscape:connector-curvature="0" /><g
         id="g192"
         transform="scale(1.00106,0.99894)"><path
           d="m 3860.35,5.9438 c 105.31,0 186,80.6832 186,185.9982 0,105.314 -80.69,185.998 -186,185.998 -105.31,0 -185.99,-80.684 -185.99,-185.998 0,-105.315 80.68,-185.9982 185.99,-185.9982 z"
           style="fill:none;stroke:#343434;stroke-width:8.49300003;stroke-linecap:butt;stroke-linejoin:round;stroke-miterlimit:10;stroke-dasharray:none;stroke-opacity:1"
           id="path194"
           inkscape:connector-curvature="0" /></g><g
         id="g196"
         transform="scale(1.00106,0.99894)"><path
           d="m 3674.36,5.9438 0,0 z"
           style="fill:none;stroke:#343434;stroke-width:8.49300003;stroke-linecap:butt;stroke-linejoin:round;stroke-miterlimit:10;stroke-dasharray:none;stroke-opacity:1"
           id="path198"
           inkscape:connector-curvature="0" /></g><g
         id="g200"
         transform="scale(1.00106,0.99894)"><path
           d="m 4046.63,378.221 0,0 z"
           style="fill:none;stroke:#343434;stroke-width:8.49300003;stroke-linecap:butt;stroke-linejoin:round;stroke-miterlimit:10;stroke-dasharray:none;stroke-opacity:1"
           id="path202"
           inkscape:connector-curvature="0" /></g><path
         d="m 3822.78,189.477 c 0,21.211 3.97,37.613 11.62,48.925 7.65,11.594 18.71,17.25 33.16,17.25 9.64,0 17.29,-1.98 23.24,-6.222 5.95,-3.961 9.92,-10.465 12.47,-19.512 l -15.02,-2.547 c -3.12,10.465 -10.2,15.555 -20.97,15.555 -9.07,0 -16.16,-4.242 -20.98,-12.727 -5.1,-8.484 -7.65,-20.363 -7.93,-36.199 2.27,5.375 6.52,9.617 12.18,12.727 5.67,3.109 11.91,4.808 18.71,4.808 11.05,0 19.84,-3.676 26.64,-11.312 6.52,-7.637 9.92,-17.817 9.92,-30.262 0,-13.008 -3.69,-23.188 -10.77,-30.539 -7.37,-7.356 -17.57,-11.031 -30.32,-11.031 -13.89,0 -24.37,5.089 -31.46,15.273 -7.09,10.18 -10.49,25.449 -10.49,45.813 z m 17.29,-15.274 c 0,-9.894 2.27,-17.816 6.8,-24.035 4.54,-5.941 10.77,-9.051 18.42,-9.051 7.66,0 13.6,2.547 17.86,7.918 4.53,5.09 6.51,12.16 6.51,20.926 0,9.051 -1.98,16.121 -6.51,21.211 -4.26,5.375 -10.2,7.918 -17.86,7.918 -4.53,0 -8.78,-1.129 -12.75,-3.11 -3.97,-1.98 -6.8,-5.089 -9.07,-8.765 -2.27,-3.961 -3.4,-8.203 -3.4,-13.012"
         style="fill:#010101;fill-opacity:1;fill-rule:evenodd;stroke:none"
         id="path204"
         inkscape:connector-curvature="0" /><path
         d="m 244.859,801.738 c 105.422,0 186.192,-80.597 186.192,-185.8 0,-105.2 -80.77,-185.797 -186.192,-185.797 -105.425,0 -186.1949,80.597 -186.1949,185.797 0,105.203 80.7699,185.8 186.1949,185.8"
         style="fill:#ff6767;fill-opacity:1;fill-rule:evenodd;stroke:none"
         id="path206"
         inkscape:connector-curvature="0" /><g
         id="g208"
         transform="scale(1.00106,0.99894)"><path
           d="m 244.6,802.589 c 105.31,0 185.994,-80.683 185.994,-185.998 0,-105.311 -80.684,-185.994 -185.994,-185.994 -105.314,0 -185.998,80.683 -185.998,185.994 0,105.315 80.684,185.998 185.998,185.998 z"
           style="fill:none;stroke:#343434;stroke-width:8.49300003;stroke-linecap:butt;stroke-linejoin:round;stroke-miterlimit:10;stroke-dasharray:none;stroke-opacity:1"
           id="path210"
           inkscape:connector-curvature="0" /></g><g
         id="g212"
         transform="scale(1.00106,0.99894)"><path
           d="m 58.602,802.589 0,0 z"
           style="fill:none;stroke:#343434;stroke-width:8.49300003;stroke-linecap:butt;stroke-linejoin:round;stroke-miterlimit:10;stroke-dasharray:none;stroke-opacity:1"
           id="path214"
           inkscape:connector-curvature="0" /></g><g
         id="g216"
         transform="scale(1.00106,0.99894)"><path
           d="m 430.879,430.311 0,0 z"
           style="fill:none;stroke:#343434;stroke-width:8.49300003;stroke-linecap:butt;stroke-linejoin:round;stroke-miterlimit:10;stroke-dasharray:none;stroke-opacity:1"
           id="path218"
           inkscape:connector-curvature="0" /></g><path
         d="m 286.234,664.297 c -12.468,-19.231 -21.539,-34.5 -26.64,-45.246 -5.383,-11.031 -9.352,-21.778 -11.903,-32.524 -2.55,-10.746 -3.968,-21.777 -3.968,-33.086 l -16.438,0 c 0,15.836 3.403,32.52 10.203,50.055 6.52,17.25 17.856,37.328 33.442,60.234 l -66.317,0 0,13.293 81.621,0 0,-12.726"
         style="fill:#010101;fill-opacity:1;fill-rule:evenodd;stroke:none"
         id="path220"
         inkscape:connector-curvature="0" /><path
         d="m 244.859,1973.38 c 105.422,0 186.192,-80.6 186.192,-185.8 0,-105.2 -80.77,-185.8 -186.192,-185.8 -105.425,0 -186.1949,80.6 -186.1949,185.8 0,105.2 80.7699,185.8 186.1949,185.8"
         style="fill:#808080;fill-opacity:1;fill-rule:evenodd;stroke:none"
         id="path222"
         inkscape:connector-curvature="0" /><g
         id="g224"
         transform="scale(1.00106,0.99894)"><path
           d="m 244.6,1975.47 c 105.31,0 185.994,-80.68 185.994,-186 0,-105.31 -80.684,-185.99 -185.994,-185.99 -105.314,0 -185.998,80.68 -185.998,185.99 0,105.32 80.684,186 185.998,186 z"
           style="fill:none;stroke:#343434;stroke-width:8.49300003;stroke-linecap:butt;stroke-linejoin:round;stroke-miterlimit:10;stroke-dasharray:none;stroke-opacity:1"
           id="path226"
           inkscape:connector-curvature="0" /></g><g
         id="g228"
         transform="scale(1.00106,0.99894)"><path
           d="m 58.602,1975.47 0,0 z"
           style="fill:none;stroke:#343434;stroke-width:8.49300003;stroke-linecap:butt;stroke-linejoin:round;stroke-miterlimit:10;stroke-dasharray:none;stroke-opacity:1"
           id="path230"
           inkscape:connector-curvature="0" /></g><g
         id="g232"
         transform="scale(1.00106,0.99894)"><path
           d="m 430.879,1603.2 0,0 z"
           style="fill:none;stroke:#343434;stroke-width:8.49300003;stroke-linecap:butt;stroke-linejoin:round;stroke-miterlimit:10;stroke-dasharray:none;stroke-opacity:1"
           id="path234"
           inkscape:connector-curvature="0" /></g><path
         d="m 287.652,1759.58 c 0,-11.31 -3.683,-20.36 -11.054,-26.58 -7.368,-6.51 -17.571,-9.62 -31.172,-9.62 -13.321,0 -23.809,3.11 -31.176,9.33 -7.367,6.23 -11.051,15.28 -11.051,26.59 0,8.2 2.266,14.99 6.801,20.36 4.535,5.66 10.484,9.05 17.855,10.18 l 0,0.29 c -6.804,1.69 -12.187,5.08 -16.156,10.17 -3.683,5.38 -5.668,11.6 -5.668,18.67 0,9.33 3.403,16.97 10.489,22.91 7.082,5.94 16.718,8.76 28.621,8.76 11.902,0 21.539,-2.82 28.625,-8.48 7.082,-5.94 10.769,-13.57 10.769,-23.47 0,-7.07 -1.984,-13.3 -5.953,-18.39 -3.969,-5.37 -9.352,-8.76 -16.152,-9.89 l 0,-0.57 c 7.933,-1.13 14.168,-4.52 18.418,-9.9 4.535,-5.37 6.804,-12.16 6.804,-20.36 z m -19.554,58.26 c 0,14.14 -7.653,20.93 -22.957,20.93 -7.653,0 -13.321,-1.7 -17.286,-5.09 -3.687,-3.68 -5.667,-8.77 -5.667,-15.84 0,-7.07 1.98,-12.45 5.949,-16.12 3.968,-3.68 9.636,-5.66 17.004,-5.66 7.367,0 13.035,1.7 17.004,5.09 3.968,3.4 5.953,9.05 5.953,16.69 z m 3.117,-56.84 c 0,7.63 -2.27,13.57 -7.086,17.53 -4.535,3.68 -10.77,5.65 -18.988,5.65 -8.219,0 -14.453,-1.97 -18.989,-6.22 -4.535,-4.24 -6.8,-9.89 -6.8,-17.25 0,-16.96 8.785,-25.45 26.074,-25.45 8.785,0 15.019,1.98 19.269,6.22 4.25,3.96 6.52,10.75 6.52,19.52"
         style="fill:#010101;fill-opacity:1;fill-rule:evenodd;stroke:none"
         id="path236"
         inkscape:connector-curvature="0" /></g></g></svg>